<?xml version="1.0" encoding="UTF-8"?>
<svg id="Layer_1" xmlns="http://www.w3.org/2000/svg" version="1.1" viewBox="0 0 2115.21 1432">
  <!-- Generator: Adobe Illustrator 30.1.0, SVG Export Plug-In . SVG Version: 2.1.1 Build 136)  -->
  <defs>
    <style>
      .st0, .st1, .st2, .st3, .st4, .st5, .st6, .st7, .st8, .st9, .st10, .st11, .st12, .st13, .st14, .st15, .st16, .st17, .st18, .st19, .st20, .st21, .st22, .st23, .st24, .st25, .st26 {
        stroke-miterlimit: 2;
      }

      .st0, .st1, .st2, .st3, .st4, .st5, .st8, .st9, .st10, .st11, .st13, .st14, .st16, .st17, .st18, .st19, .st20, .st21, .st22, .st23, .st24, .st25, .st26 {
        fill: none;
      }

      .st0, .st15 {
        stroke: #10009f;
      }

      .st0, .st19, .st23, .st25 {
        stroke-width: .5px;
      }

      .st1, .st2, .st3, .st4, .st20, .st21, .st24 {
        stroke: #000;
      }

      .st1, .st11, .st14 {
        stroke-width: 1.1px;
      }

      .st27, .st12 {
        fill: #9f0800;
      }

      .st2, .st9 {
        stroke-width: .93px;
      }

      .st3, .st5, .st10, .st13, .st17 {
        stroke-width: .9px;
      }

      .st4, .st6, .st7, .st8, .st12, .st15, .st16, .st18 {
        stroke-width: .3px;
      }

      .st5 {
        stroke: #111;
      }

      .st28, .st15 {
        fill: #10009f;
      }

      .st6, .st29 {
        fill: #ddd;
      }

      .st6, .st22, .st23 {
        stroke: #ddd;
      }

      .st7, .st19, .st26 {
        stroke: #bdb;
      }

      .st7, .st30 {
        fill: #bdb;
      }

      .st31 {
        font-family: MyriadPro-Regular, 'Myriad Pro';
        font-size: 12px;
      }

      .st8, .st9, .st10, .st11 {
        stroke: #212620;
      }

      .st32, .st33, .st34, .st35 {
        fill: #fff;
      }

      .st32, .st20 {
        font-size: 9.99px;
      }

      .st32, .st20, .st21, .st24, .st34, .st35 {
        font-family: Helvetica-Bold, Helvetica;
        font-weight: 700;
        isolation: isolate;
      }

      .st36 {
        fill: #ccc;
      }

      .st12, .st25 {
        stroke: #9f0800;
      }

      .st13, .st14, .st18 {
        stroke: #bfbbdd;
      }

      .st16 {
        stroke: #fff;
      }

      .st17 {
        stroke: #060;
      }

      .st37 {
        fill: #7b7569;
      }

      .st20, .st21, .st24 {
        stroke-width: .15px;
      }

      .st21, .st35 {
        font-size: 7.49px;
      }

      .st38 {
        fill: #f8f8f8;
      }

      .st22, .st26 {
        stroke-width: .33px;
      }

      .st24, .st34 {
        font-size: 6.49px;
      }

      .st39 {
        fill: #eee;
      }
    </style>
  </defs>
  <rect class="st33" x="34.48" y="84.05" width="1978.47" height="1311.4"/>
  <g>
    <g>
      <path class="st37" d="M1812.84,352.38h-211.8v-120.81h211.8v120.81Z"/>
      <path class="st37" d="M1812.84,467.2h-173.42v-120.81h173.42v120.81Z"/>
      <path class="st37" d="M1812.84,237.56h-211.8V84.41h211.8v153.16Z"/>
      <path class="st37" d="M1430.75,237.56h-211.8V84.41h211.8v153.16Z"/>
      <path class="st37" d="M1071.97,238.56h-164.95V85.4h164.95v153.16Z"/>
      <path class="st37" d="M913.02,238.56h-305.32V85.4h305.32v153.16Z"/>
      <path class="st37" d="M1430.75,437.17h-211.8v-153.16h211.8v153.16Z"/>
      <path class="st37" d="M1430.75,631.52h-153.16v-200.35h153.16v200.35Z"/>
      <path class="st37" d="M613.7,238.56h-254.09V84.41h254.09v154.16Z"/>
      <path class="st37" d="M238.7,227.66H31.57V84.41h207.13v143.26Z"/>
      <path class="st37" d="M238.7,437.17H31.57v-215.5h207.13v215.5Z"/>
      <path class="st37" d="M238.7,538.65H31.57v-107.48h207.13v107.48Z"/>
      <path class="st37" d="M2016.9,942.55h-151.83v-305.92h151.83v305.92Z"/>
      <path class="st37" d="M1768.28,946.43h-319.54v-211.8h319.54v211.8Z"/>
      <path class="st37" d="M1454.73,946.43h-211.8v-211.8h211.8v211.8Z"/>
      <path class="st37" d="M1112.84,946.43h-148.48v-210.68h148.48v210.68Z"/>
      <path class="st37" d="M1248.92,946.43h-142.08v-211.8h142.08v211.8Z"/>
      <path class="st37" d="M1283.58,740.62h-319.22v-73.72h-113.69v-194.43h432.91v268.14Z"/>
      <path class="st37" d="M856.67,947.68h-143.34v-211.8h143.34v211.8Z"/>
      <path class="st37" d="M719.32,947.68h-162.87v-211.8h162.87v211.8Z"/>
      <path class="st37" d="M856.67,740.62h-300.22v-268.14h300.22v268.14Z"/>
      <path class="st37" d="M562.45,740.62h-232.48v-268.14h232.48v268.14Z"/>
      <path class="st37" d="M256.13,1163.49H30.11v-245.57h226.02v245.57Z"/>
      <path class="st37" d="M256.13,1403.07H30.11v-245.57h226.02v245.57Z"/>
      <path class="st37" d="M676.45,1403.07h-186.21v-189.06h186.21v189.06Z"/>
      <path class="st37" d="M856.67,1403.07h-186.21v-189.06h186.21v189.06Z"/>
      <path class="st37" d="M1036.89,1403.07h-186.21v-189.06h186.21v189.06Z"/>
      <path class="st37" d="M1217.11,1403.07h-186.21v-189.06h186.21v189.06Z"/>
      <path class="st37" d="M1397.33,1403.07h-186.21v-189.06h186.21v189.06Z"/>
      <path class="st37" d="M1577.55,1403.07h-186.21v-189.06h186.21v189.06Z"/>
      <path class="st37" d="M1808.81,1403.07h-237.86v-189.06h237.86v189.06Z"/>
    </g>
    <g>
      <path class="st38" d="M1607.03,237.56v108.83h0v5.99h39.96v-5.99h159.85v-108.83h-199.82Z"/>
      <path class="st38" d="M1645.42,352.38v14.45h-5.99v39.96h5.99v54.41h161.43v-108.83h-161.43Z"/>
      <path class="st38" d="M1607.03,90.4v101.21h-5.99v39.96h205.81V90.4h-199.82Z"/>
      <path class="st38" d="M1224.94,90.4v101.21h-5.99v39.96h205.81V90.4h-199.82Z"/>
      <path class="st38" d="M913.02,91.4v141.17h16.24v5.99h39.96v-5.99h96.75V91.4h-152.96Z"/>
      <path class="st38" d="M613.7,91.4v141.17h78.12v5.99h39.96v-5.99h175.24v-70.58h5.99v-39.96h-5.99v-30.62h-293.33Z"/>
      <path class="st38" d="M1224.94,290.01v100.06h-5.99v39.96h5.99v1.15h199.82v-141.17h-14.57v-5.99h-39.96v5.99h-145.28Z"/>
      <path class="st38" d="M1424.75,437.17h-147.16v37.07h5.99v151.28h141.17v-141.79h5.99v-39.96h-5.99v-6.6Z"/>
      <path class="st38" d="M365.6,90.4v102.21h-5.99v39.96h248.09V90.4h-242.1Z"/>
      <path class="st38" d="M37.56,90.4v131.27h201.13v-39.96h-5.99v-91.31H37.56Z"/>
      <path class="st38" d="M37.56,227.66v203.51h201.13v-39.96h-5.99v-122.3h5.99v-39.96h-5.99v-1.28H37.56Z"/>
      <path class="st38" d="M37.56,437.17v95.49h195.14v-47.75h5.99v-39.96h-5.99v-7.78H37.56Z"/>
      <path class="st38" d="M1871.07,642.63v14.95h-5.99v52.11h5.99v68.18h-5.99v52.11h5.99v39.47h-5.99v52.11h5.99v14.99h139.84v-293.93h-139.84Z"/>
      <path class="st38" d="M1454.73,740.62v199.82h307.55v-199.82h-307.55Z"/>
      <path class="st38" d="M1248.92,740.62v199.82h199.82v-199.82h-199.82Z"/>
      <path class="st38" d="M970.36,741.74v198.7h16.13v5.99h52.11v-5.99h68.24v-198.7h-136.49Z"/>
      <path class="st38" d="M1242.93,940.43v-199.82h-130.09v199.82h3.95v5.99h52.11v-5.99h74.03Z"/>
      <path class="st38" d="M1277.59,734.62v-256.15h-420.92v182.44h113.69v10.8h-5.99v52.11h5.99v10.8h307.23Z"/>
      <path class="st38" d="M719.32,741.87v199.82h13.56v5.99h52.11v-5.99h65.67v-199.82h-131.35Z"/>
      <path class="st38" d="M562.45,741.87v199.82h7.57v5.99h52.11v-5.99h91.2v-199.82h-150.88Z"/>
      <path class="st38" d="M562.45,478.47v256.15h288.23v-7.16h5.99v-52.11h-5.99v-196.89h-288.23Z"/>
      <path class="st38" d="M335.96,478.47v256.15h139.74v5.99h52.11v-5.99h28.64v-256.15h-220.49Z"/>
      <path class="st38" d="M36.1,923.91v233.58h214.03v-6.28h5.99v-52.11h-5.99v-175.19H36.1Z"/>
      <path class="st38" d="M36.1,1163.49v233.58h214.03v-173.41h5.99v-52.11h-5.99v-8.06H36.1Z"/>
      <path class="st38" d="M496.23,1220v177.07h174.22v-177.07h-104.37v-5.99h-52.11v5.99h-17.74Z"/>
      <path class="st38" d="M676.45,1220v177.07h174.22v-177.07h-113.72v-5.99h-52.11v5.99h-8.39Z"/>
      <path class="st38" d="M856.67,1220v177.07h174.22v-177.07h-105.31v-5.99h-52.11v5.99h-16.81Z"/>
      <path class="st38" d="M1036.89,1220v177.07h174.22v-177.07h-111.93v-5.99h-52.11v5.99h-10.19Z"/>
      <path class="st38" d="M1217.11,1220v177.07h174.22v-177.07h-108.98v-5.99h-52.11v5.99h-13.14Z"/>
      <path class="st38" d="M1397.33,1220v177.07h174.22v-177.07h-107.39v-5.99h-52.11v5.99h-14.72Z"/>
      <path class="st38" d="M1576.94,1220v177.07h225.88v-177.07h-14.7v-5.99h-52.11v5.99h-159.07Z"/>
    </g>
    <path class="st33" d="M1591.16,1214h121.2v6.01h-121.2v-6.01Z"/>
    <g>
      <path class="st37" d="M1607.03,90.4H32.88v-6h1574.15v6Z"/>
      <path class="st37" d="M856.67,478.47h-6v-245.9h6v245.9Z"/>
      <path class="st37" d="M1812.84,577.92h-6v-20.38h6v20.38ZM1812.84,482.62h-6v-37.65h6v37.65Z"/>
      <path class="st37" d="M1812.84,577.92h-205.81v-6h205.81v6Z"/>
      <path class="st37" d="M1614.26,631.52l-5.99.14-1.23-53.74,5.99-.14,1.23,53.74Z"/>
      <path class="st37" d="M1614.26,631.52h-189.5v-6h189.5v6Z"/>
      <path class="st37" d="M1283.62,478.47H329.97v-6h953.65v6Z"/>
      <path class="st37" d="M335.96,532.66h-6v-54.2h6v54.2Z"/>
      <path class="st37" d="M258.21,538.66h-21.54v-6h21.54v6ZM335.96,538.66h-25.64v-6h25.64v6Z"/>
      <path class="st37" d="M2016.55,467.48h-203.71v-6h203.71v6Z"/>
      <path class="st37" d="M2016.55,566.95h-6v-99.48h6v99.48Z"/>
      <path class="st37" d="M1768.58,946.21h-6v-368.29h6v368.29Z"/>
      <path class="st37" d="M455.66,1059.8h-6v-325.18h6v325.18Z"/>
      <path class="st37" d="M248.31,740.62H19.93v-6h228.38v6ZM329.97,740.62h-6.72v-6h6.72v6Z"/>
      <path class="st37" d="M455.66,1059.8h-104.63v-6h104.63v6Z"/>
      <path class="st37" d="M856.74,1132.93h-6v-184.97h6v184.97Z"/>
      <path class="st37" d="M1870.99,941.36l-29.63,162.19-5.9-1.08,29.63-162.19,5.9,1.08Z"/>
      <path class="st37" d="M1433.92,1006.59h-318.96v-6h318.96v6ZM1680.39,1006.59h-194.36v-6h194.36v6Z"/>
      <path class="st37" d="M1120.95,1158.24h-6v-151.66h6v151.66Z"/>
      <path class="st37" d="M1680.39,1152.25v6h-18.02v-6h18.02ZM1610.25,1152.25v6h-311.49v-6h311.49ZM1246.65,1152.25v6h-131.76v-6h131.76Z"/>
      <path class="st37" d="M1680.39,1158.24h-6v-151.66h6v151.66Z"/>
      <path class="st37" d="M1506.36,1158.24h-6v-152.19h6v152.19Z"/>
      <path class="st37" d="M1316.83,1158.24h-6v-151.66h6v151.66Z"/>
      <path class="st37" d="M1808.52,1216.62h-6v-72.07h6v72.07Z"/>
      <path class="st37" d="M2015.94,1402.97h-6v-760.34h6v760.34Z"/>
      <path class="st37" d="M1843.41,1149.75h-40.88v-6h40.88v6Z"/>
      <path class="st37" d="M182.75,90.4H32.88v-6h149.86v6Z"/>
      <path class="st37" d="M180.11,873.1h-6v-138.48h6v138.48Z"/>
      <path class="st37" d="M2009.95,1402.97H30.62v-6h1979.33v6Z"/>
      <path class="st37" d="M771.88,232.57h-6V91.4h6v141.17Z"/>
      <path class="st37" d="M2012.16,853.02h-145.47v-6h145.47v6Z"/>
      <path class="st37" d="M2016.55,764.43h-149.86v-6h149.86v6Z"/>
    </g>
    <path class="st5" d="M1808.81,1403.07H490.24v-.1h-234.1v.1H30.11v-485.15h226.02v181.18h-5.99v-175.19H36.1v233.58h214.03v-6.28h5.99v20.34h-5.99v-8.06H36.1v233.48h214.03v-173.31h5.99v173.31h234.1v-182.96h23.74v5.99h-17.74v176.97h174.22v-176.97h-104.37v-5.99h118.76v5.99h-8.39v176.97h174.22v-176.97h-113.72v-5.99h136.53v5.99h-16.81v176.97h174.22v-176.97h-105.31v-5.99h121.49v5.99h-10.19v176.97h174.22v-176.97h-111.93v-5.99h131.06v5.99h-13.14v176.97h174.22v-176.97h-108.98v-5.99h129.69v5.99h-14.72v176.97h174.22v-176.97h-107.39v-5.99h127v5.99h-14.22v176.97h225.88v-176.97h-14.7v-5.99h14.4v-70.25h40.88v6h-34.89v64.26h.29v182.96h201.14v-454.42h-139.17l-29.41,161-5.9-1.08,29.61-162.11v-18.8h5.99v14.99h138.87v-83.54h-138.87v16.44h-5.99v-39.47h5.99v17.04h138.87v-82.59h-138.87v13.44h-5.99v-68.18h5.99v48.74h138.87v-115.81h-138.87v14.95h-5.99v-20.95h151.83v305.92h-.96v460.42h-207.13v.1ZM1736.01,1220h-23.65v-5.99h23.65v5.99ZM1662.36,1152.25h12.03v-145.66h-168.03v145.66h103.89v6h-103.89s0,0,0,0h-6s-183.53,0-183.53,0h0s-6,0-6,0h0s-12.08,0-12.08,0v-6h12.08v-145.66h-189.89v145.66h125.7v6h-125.7s0,0,0,0h-6s-.06,0-.06,0v-6h.06v-151.66h318.96v6h-117.08v145.66h183.53s0-145.66,0-145.66h-14.34v-6h194.36v6h0v151.66h-18.02v-6ZM856.74,1132.93h-6v-184.97h6v184.97ZM2010.55,566.95v-99.48h-197.71v15.14h-6v-15.41h-167.42v-60.41h5.99v54.41h161.43v-16.25h0v-92.58h-159.85v-5.99h159.85v-108.83h-199.82v114.82h-5.99v-120.81h205.81V90.4h-199.82s0,0,0,0v101.21h-5.99v-101.21h-170.29v147.16h-211.8v-5.99h205.81V90.4h-199.82v101.21h-5.99v-101.21h-146.97v148.16h-102.75v-5.99h96.75V91.4h-152.96v30.62h-5.99v-30.62h-135.15v141.17h78.79s6,0,6,0h0s50.36,0,50.36,0v-70.58h5.99v70.58h16.24v5.99h-72.59v233.91h426.95v6h-.04v147.06h141.17s0,0,0,0v-141.79h5.99v141.79h177.38l-1.09-47.61v-5.99h199.82v-14.38h6v20.38h-44.26v368.29h-.3v.21h-599.38v-5.99h74.03v-199.82h-130.09v199.82h3.95v5.99h-78.19v-5.99h68.24v-198.7h-136.49v198.7h16.13v5.99h-22.13v-222.61h5.99v10.8h307.23v-256.15h-420.92s0,0,0,0v182.44h113.69v10.8h-5.99v-4.81h-107.69v8.46h-5.99v-196.89h0s-288.23,0-288.23,0v256.15h288.23v-7.16h5.99v220.21h-71.67v-5.99h65.67v-199.82h-131.35v199.82h13.56v5.99h-110.76v-5.99h91.2v-199.82h-150.88v199.82h7.57v5.99h-13.57v-207.06h-28.64v-5.99h28.64v-256.15h-220.49v60.19h0v195.97h113.71s6,0,6,0h0s20.03,0,20.03,0v5.99h-20.03v319.19h-104.63v-6h98.63v-313.19h-119.7s-6.72,0-6.72,0v-6h6.72v-195.97h-19.64v-6h19.64v-60.19h520.71v-233.91h-118.89v-5.99h34.1V91.4h-152.19v141.17h78.12v5.99h-332.21v-5.99h248.09V90.4h-242.1v102.2h-5.99v-102.2h-120.92v91.3h-5.99v-91.3H37.56v131.27h201.13v7.28h-5.99v-1.28H37.56v203.51h201.13v13.78h-5.99v-7.78H37.56v95.49h195.14v-47.75h5.99v47.74h19.52v6h-21.54s-205.11,0-205.11,0V84.41h1.32s1574.15,0,1574.15,0h0s205.81,0,205.81,0v360.55h0v16.52h203.71v105.47h-6ZM1454.73,740.62v199.82h307.55v-199.82h-307.55ZM1248.92,740.62v199.82h199.82v-199.82h-199.82ZM248.31,740.62h-68.21v132.48h-6v-132.48H19.93v-6h228.38v6ZM1762.59,577.92h-149.56l1.09,47.6h.14v6l-5.99.14v-.14h-183.51s-141.17,0-141.17,0v103.1h479.01v-156.7ZM1430.75,443.77h-5.99v-6.6h-205.81v-7.14h5.99v1.15h199.82v-141.17h-14.57v-5.99h20.56v159.76ZM238.7,391.21h-5.99v-122.3h5.99v122.3ZM1370.22,290.01h-145.28v100.06h-5.99v-106.05h151.28v5.99ZM1645.42,366.83h-5.99v-14.44h5.99v14.44Z"/>
    <path class="st33" d="M1109.65,365.66c1.38,0,2.5-1.12,2.5-2.5v-74.93c0-1.38-1.12-2.5-2.5-2.5h-34.97c-1.38,0-2.5,1.12-2.5,2.5v74.93c0,1.38,1.12,2.5,2.5,2.5h34.97Z"/>
    <path class="st4" d="M1109.65,365.66c1.38,0,2.5-1.12,2.5-2.5v-74.93c0-1.38-1.12-2.5-2.5-2.5h-34.97c-1.38,0-2.5,1.12-2.5,2.5v74.93c0,1.38,1.12,2.5,2.5,2.5h34.97Z"/>
    <path class="st33" d="M1149.61,365.66c1.38,0,2.5-1.12,2.5-2.5v-74.93c0-1.38-1.12-2.5-2.5-2.5h-34.97c-1.38,0-2.5,1.12-2.5,2.5v74.93c0,1.38,1.12,2.5,2.5,2.5h34.97Z"/>
    <path class="st4" d="M1149.61,365.66c1.38,0,2.5-1.12,2.5-2.5v-74.93c0-1.38-1.12-2.5-2.5-2.5h-34.97c-1.38,0-2.5,1.12-2.5,2.5v74.93c0,1.38,1.12,2.5,2.5,2.5h34.97Z"/>
    <path class="st33" d="M1149.61,445.59c1.38,0,2.5-1.12,2.5-2.5v-74.93c0-1.38-1.12-2.5-2.5-2.5h-34.97c-1.38,0-2.5,1.12-2.5,2.5v74.93c0,1.38,1.12,2.5,2.5,2.5h34.97Z"/>
    <path class="st4" d="M1149.61,445.59c1.38,0,2.5-1.12,2.5-2.5v-74.93c0-1.38-1.12-2.5-2.5-2.5h-34.97c-1.38,0-2.5,1.12-2.5,2.5v74.93c0,1.38,1.12,2.5,2.5,2.5h34.97Z"/>
    <path class="st33" d="M1109.65,445.59c1.38,0,2.5-1.12,2.5-2.5v-74.93c0-1.38-1.12-2.5-2.5-2.5h-34.97c-1.38,0-2.5,1.12-2.5,2.5v74.93c0,1.38,1.12,2.5,2.5,2.5h34.97Z"/>
    <path class="st4" d="M1109.65,445.59c1.38,0,2.5-1.12,2.5-2.5v-74.93c0-1.38-1.12-2.5-2.5-2.5h-34.97c-1.38,0-2.5,1.12-2.5,2.5v74.93c0,1.38,1.12,2.5,2.5,2.5h34.97Z"/>
    <path class="st36" d="M3819.01.37h14.49v5.49h-14.49V.37Z"/>
    <path class="st4" d="M3819.01.37h14.49v5.49h-14.49V.37Z"/>
    <path class="st39" d="M3819.26.62h13.99v3.87h-2.86v1.13h-11.13V.62Z"/>
    <path class="st4" d="M3819.26.62h13.99v3.87h-2.86v1.13h-11.13V.62Z"/>
    <path class="st39" d="M3833.25,5.62h-2.61v-.44h.87v-.44h.87v.44h.87v.44Z"/>
    <g>
      <path class="st4" d="M3833.25,5.62h-2.61v-.44h.87v-.44h.87v.44h.87v.44Z"/>
      <path class="st4" d="M1646.99,351.88h-39.96"/>
      <path class="st4" d="M1607.03,346.89h2.5v5"/>
      <path class="st4" d="M1646.99,346.89h-2.5v39.96c-19.31,0-34.97-15.66-34.97-34.97"/>
      <line class="st4" x1="1642" y1="351.88" x2="1642" y2="386.76"/>
      <path class="st4" d="M1807.35,482.62v2.5h39.96c0,19.31-15.66,34.97-34.97,34.97,19.31,0,34.97,15.66,34.97,34.97h-39.96v2.5"/>
      <line class="st4" x1="1812.34" y1="482.62" x2="1812.34" y2="557.55"/>
      <line class="st4" x1="1812.34" y1="487.61" x2="1847.22" y2="487.61"/>
      <line class="st4" x1="1812.34" y1="552.55" x2="1847.22" y2="552.55"/>
      <path class="st4" d="M258.21,533.16h52.11"/>
      <path class="st4" d="M310.33,538.16h-2.5v-5"/>
      <path class="st4" d="M258.21,538.16h2.5v-52.11c26.02,0,47.12,21.09,47.12,47.12"/>
      <line class="st4" x1="263.21" y1="533.16" x2="263.21" y2="486.11"/>
      <path class="st4" d="M248.31,740.12h2.5v-39.96c19.31,0,34.97,15.66,34.97,34.97,0-19.31,15.66-34.97,34.97-34.97v39.96h2.5"/>
      <line class="st4" x1="248.31" y1="735.12" x2="323.24" y2="735.12"/>
      <line class="st4" x1="253.31" y1="735.12" x2="253.31" y2="700.24"/>
      <line class="st4" x1="318.25" y1="735.12" x2="318.25" y2="700.24"/>
      <line class="st4" x1="1433.92" y1="1000.59" x2="1486.03" y2="1000.59"/>
      <line class="st4" x1="1486.03" y1="1006.59" x2="1433.92" y2="1006.59"/>
      <line class="st4" x1="1246.65" y1="1152.25" x2="1298.76" y2="1152.25"/>
      <line class="st4" x1="1298.76" y1="1158.24" x2="1246.65" y2="1158.24"/>
      <line class="st4" x1="1610.25" y1="1152.25" x2="1662.36" y2="1152.25"/>
      <line class="st4" x1="1662.36" y1="1158.24" x2="1610.25" y2="1158.24"/>
      <path class="st4" d="M1639.92,406.8v-39.96"/>
      <path class="st4" d="M1644.92,366.83v2.5h-5"/>
      <path class="st4" d="M1644.92,406.8v-2.5h-39.96c0-19.31,15.66-34.97,34.97-34.97"/>
      <line class="st4" x1="1639.92" y1="401.8" x2="1605.04" y2="401.8"/>
      <path class="st4" d="M1601.53,231.57v-39.96"/>
      <path class="st4" d="M1606.53,191.61v2.5h-5"/>
      <path class="st4" d="M1606.53,231.57v-2.5h-39.96c0-19.31,15.66-34.97,34.97-34.97"/>
      <line class="st4" x1="1601.53" y1="226.57" x2="1566.66" y2="226.57"/>
      <path class="st4" d="M1219.44,231.57v-39.96"/>
      <path class="st4" d="M1224.44,191.61v2.5h-5"/>
      <path class="st4" d="M1224.44,231.57v-2.5h-39.96c0-19.31,15.66-34.97,34.97-34.97"/>
      <line class="st4" x1="1219.44" y1="226.57" x2="1184.56" y2="226.57"/>
      <path class="st4" d="M969.22,238.06h-39.96"/>
      <path class="st4" d="M929.26,233.07h2.5v5"/>
      <path class="st4" d="M969.22,233.07h-2.5v39.96c-19.31,0-34.97-15.66-34.97-34.97"/>
      <line class="st4" x1="964.23" y1="238.06" x2="964.23" y2="272.94"/>
      <path class="st4" d="M912.52,122.02v39.96"/>
      <path class="st4" d="M907.53,161.98v-2.5h5"/>
      <path class="st4" d="M907.53,122.02v2.5h39.96c0,19.31-15.66,34.97-34.97,34.97"/>
      <line class="st4" x1="912.52" y1="127.02" x2="947.4" y2="127.02"/>
      <path class="st4" d="M731.78,238.06h-39.96"/>
      <path class="st4" d="M691.82,233.07h2.5v5"/>
      <path class="st4" d="M731.78,233.07h-2.5v39.96c-19.31,0-34.97-15.66-34.97-34.97"/>
      <line class="st4" x1="726.79" y1="238.06" x2="726.79" y2="272.94"/>
      <path class="st4" d="M1370.22,284.51h39.96"/>
      <path class="st4" d="M1410.18,289.51h-2.5v-5"/>
      <path class="st4" d="M1370.22,289.51h2.5v-39.96c19.31,0,34.97,15.66,34.97,34.97"/>
      <line class="st4" x1="1375.22" y1="284.51" x2="1375.22" y2="249.63"/>
      <path class="st4" d="M1219.44,430.03v-39.96"/>
      <path class="st4" d="M1224.44,390.07v2.5h-5"/>
      <path class="st4" d="M1224.44,430.03v-2.5h-39.96c0-19.31,15.66-34.97,34.97-34.97"/>
      <line class="st4" x1="1219.44" y1="425.03" x2="1184.56" y2="425.03"/>
      <path class="st4" d="M1430.25,443.77v39.96"/>
      <path class="st4" d="M1425.25,483.74v-2.5h5"/>
      <path class="st4" d="M1425.25,443.77v2.5h39.96c0,19.31-15.66,34.97-34.97,34.97"/>
      <line class="st4" x1="1430.25" y1="448.77" x2="1465.12" y2="448.77"/>
      <path class="st4" d="M1278.09,474.25v-37.07"/>
      <path class="st4" d="M1283.08,437.17v2.5h-5"/>
      <path class="st4" d="M1283.08,474.25v-2.5h-37.07c0-17.72,14.36-32.08,32.08-32.08"/>
      <line class="st4" x1="1278.09" y1="469.25" x2="1246.1" y2="469.25"/>
      <path class="st4" d="M360.11,232.57v-39.96"/>
      <path class="st4" d="M365.11,192.61v2.5h-5"/>
      <path class="st4" d="M365.11,232.57v-2.5h-39.96c0-19.31,15.66-34.97,34.97-34.97"/>
      <line class="st4" x1="360.11" y1="227.57" x2="325.23" y2="227.57"/>
      <path class="st4" d="M238.2,181.71v39.96"/>
      <path class="st4" d="M233.2,221.67v-2.5h5"/>
      <path class="st4" d="M233.2,181.71v2.5h39.96c0,19.31-15.66,34.97-34.97,34.97"/>
      <line class="st4" x1="238.2" y1="186.7" x2="273.07" y2="186.7"/>
      <path class="st4" d="M238.2,228.95v39.96"/>
      <path class="st4" d="M233.2,268.91v-2.5h5"/>
      <path class="st4" d="M233.2,228.95v2.5h39.96c0,19.31-15.66,34.97-34.97,34.97"/>
      <line class="st4" x1="238.2" y1="233.94" x2="273.07" y2="233.94"/>
      <path class="st4" d="M238.2,391.21v39.96"/>
      <path class="st4" d="M233.2,431.18v-2.5h5"/>
      <path class="st4" d="M233.2,391.21v2.5h39.96c0,19.31-15.66,34.97-34.97,34.97"/>
      <line class="st4" x1="238.2" y1="396.21" x2="273.07" y2="396.21"/>
      <path class="st4" d="M238.2,444.95v39.96"/>
      <path class="st4" d="M233.2,484.92v-2.5h5"/>
      <path class="st4" d="M233.2,444.95v2.5h39.96c0,19.31-15.66,34.97-34.97,34.97"/>
      <line class="st4" x1="238.2" y1="449.95" x2="273.07" y2="449.95"/>
      <path class="st4" d="M1865.58,921.57v-52.11"/>
      <path class="st4" d="M1870.57,869.46v2.5h-5"/>
      <path class="st4" d="M1870.57,921.57v-2.5h-52.11c0-26.02,21.09-47.12,47.12-47.12"/>
      <line class="st4" x1="1865.58" y1="916.57" x2="1818.53" y2="916.57"/>
      <path class="st4" d="M1865.58,829.98v-52.11"/>
      <path class="st4" d="M1870.57,777.87v2.5h-5"/>
      <path class="st4" d="M1870.57,829.98v-2.5h-52.11c0-26.02,21.09-47.12,47.12-47.12"/>
      <line class="st4" x1="1865.58" y1="824.99" x2="1818.53" y2="824.99"/>
      <path class="st4" d="M1865.58,709.69v-52.11"/>
      <path class="st4" d="M1870.57,657.58v2.5h-5"/>
      <path class="st4" d="M1870.57,709.69v-2.5h-52.11c0-26.02,21.09-47.12,47.12-47.12"/>
      <line class="st4" x1="1865.58" y1="704.7" x2="1818.53" y2="704.7"/>
      <path class="st4" d="M1038.6,945.93h-52.11"/>
      <path class="st4" d="M986.49,940.93h2.5v5"/>
      <path class="st4" d="M1038.6,940.93h-2.5v52.11c-26.02,0-47.12-21.09-47.12-47.12"/>
      <line class="st4" x1="1033.6" y1="945.93" x2="1033.6" y2="992.98"/>
      <path class="st4" d="M1168.9,945.93h-52.11"/>
      <path class="st4" d="M1116.79,940.93h2.5v5"/>
      <path class="st4" d="M1168.9,940.93h-2.5v52.11c-26.02,0-47.12-21.09-47.12-47.12"/>
      <line class="st4" x1="1163.91" y1="945.93" x2="1163.91" y2="992.98"/>
      <path class="st4" d="M964.86,723.82v-52.11"/>
      <path class="st4" d="M969.86,671.71v2.5h-5"/>
      <path class="st4" d="M969.86,723.82v-2.5h-52.11c0-26.02,21.09-47.12,47.12-47.12"/>
      <line class="st4" x1="964.86" y1="718.82" x2="917.81" y2="718.82"/>
      <path class="st4" d="M785,947.18h-52.11"/>
      <path class="st4" d="M732.89,942.18h2.5v5"/>
      <path class="st4" d="M785,942.18h-2.5v52.11c-26.02,0-47.12-21.09-47.12-47.12"/>
      <line class="st4" x1="780" y1="947.18" x2="780" y2="994.23"/>
      <path class="st4" d="M622.13,947.18h-52.11"/>
      <path class="st4" d="M570.02,942.18h2.5v5"/>
      <path class="st4" d="M622.13,942.18h-2.5v52.11c-26.02,0-47.12-21.09-47.12-47.12"/>
      <line class="st4" x1="617.13" y1="947.18" x2="617.13" y2="994.23"/>
      <path class="st4" d="M856.17,675.35v52.11"/>
      <path class="st4" d="M851.17,727.46v-2.5h5"/>
      <path class="st4" d="M851.17,675.35v2.5h52.11c0,26.02-21.09,47.12-47.12,47.12"/>
      <line class="st4" x1="856.17" y1="680.35" x2="903.22" y2="680.35"/>
      <path class="st4" d="M527.81,740.12h-52.11"/>
      <path class="st4" d="M475.7,735.12h2.5v5"/>
      <path class="st4" d="M527.81,735.12h-2.5v52.11c-26.02,0-47.12-21.09-47.12-47.12"/>
      <line class="st4" x1="522.81" y1="740.12" x2="522.81" y2="787.17"/>
      <path class="st4" d="M255.63,1099.1v52.11"/>
      <path class="st4" d="M250.64,1151.21v-2.5h5"/>
      <path class="st4" d="M250.64,1099.1v2.5h52.11c0,26.02-21.09,47.12-47.12,47.12"/>
      <line class="st4" x1="255.63" y1="1104.1" x2="302.68" y2="1104.1"/>
      <path class="st4" d="M255.63,1171.55v52.11"/>
      <path class="st4" d="M250.64,1223.66v-2.5h5"/>
      <path class="st4" d="M250.64,1171.55v2.5h52.11c0,26.02-21.09,47.12-47.12,47.12"/>
      <line class="st4" x1="255.63" y1="1176.54" x2="302.68" y2="1176.54"/>
      <path class="st4" d="M513.97,1214.51h52.11"/>
      <path class="st4" d="M566.08,1219.5h-2.5v-5"/>
      <path class="st4" d="M513.97,1219.5h2.5v-52.11c26.02,0,47.12,21.09,47.12,47.12"/>
      <line class="st4" x1="518.97" y1="1214.51" x2="518.97" y2="1167.46"/>
      <path class="st4" d="M684.84,1214.51h52.11"/>
      <path class="st4" d="M736.95,1219.5h-2.5v-5"/>
      <path class="st4" d="M684.84,1219.5h2.5v-52.11c26.02,0,47.12,21.09,47.12,47.12"/>
      <line class="st4" x1="689.83" y1="1214.51" x2="689.83" y2="1167.46"/>
      <path class="st4" d="M873.48,1214.51h52.11"/>
      <path class="st4" d="M925.59,1219.5h-2.5v-5"/>
      <path class="st4" d="M873.48,1219.5h2.5v-52.11c26.02,0,47.12,21.09,47.12,47.12"/>
      <line class="st4" x1="878.47" y1="1214.51" x2="878.47" y2="1167.46"/>
      <path class="st4" d="M1047.08,1214.51h52.11"/>
      <path class="st4" d="M1099.19,1219.5h-2.5v-5"/>
      <path class="st4" d="M1047.08,1219.5h2.5v-52.11c26.02,0,47.12,21.09,47.12,47.12"/>
      <line class="st4" x1="1052.07" y1="1214.51" x2="1052.07" y2="1167.46"/>
      <path class="st4" d="M1230.25,1214.51h52.11"/>
      <path class="st4" d="M1282.36,1219.5h-2.5v-5"/>
      <path class="st4" d="M1230.25,1219.5h2.5v-52.11c26.02,0,47.12,21.09,47.12,47.12"/>
      <line class="st4" x1="1235.24" y1="1214.51" x2="1235.24" y2="1167.46"/>
      <path class="st4" d="M1412.05,1214.51h52.11"/>
      <path class="st4" d="M1464.16,1219.5h-2.5v-5"/>
      <path class="st4" d="M1412.05,1219.5h2.5v-52.11c26.02,0,47.12,21.09,47.12,47.12"/>
      <line class="st4" x1="1417.04" y1="1214.51" x2="1417.04" y2="1167.46"/>
      <line class="st4" x1="1712.36" y1="1220" x2="1591.16" y2="1220"/>
      <line class="st4" x1="1712.36" y1="1214.01" x2="1591.16" y2="1214.01"/>
      <line class="st4" x1="1591.16" y1="1214.51" x2="1712.36" y2="1214.51"/>
      <line class="st4" x1="1591.16" y1="1219.5" x2="1712.36" y2="1219.5"/>
      <line class="st4" x1="1596.16" y1="1219.5" x2="1596.16" y2="1214.51"/>
      <line class="st4" x1="1707.36" y1="1219.5" x2="1707.36" y2="1214.51"/>
      <line class="st4" x1="1596.16" y1="1217.01" x2="1707.36" y2="1217.01"/>
      <path class="st4" d="M1736.01,1214.51h52.11"/>
      <path class="st4" d="M1788.12,1219.5h-2.5v-5"/>
      <path class="st4" d="M1736.01,1219.5h2.5v-52.11c26.02,0,47.12,21.09,47.12,47.12"/>
      <line class="st4" x1="1741.01" y1="1214.51" x2="1741.01" y2="1167.46"/>
    </g>
    <path class="st33" d="M32.88,544.1v69.94h149.86v-69.94H32.88Z"/>
    <g>
      <path class="st4" d="M32.88,544.1v69.94h149.86v-69.94H32.88Z"/>
      <path class="st4" d="M32.88,546.1h149.86"/>
      <path class="st4" d="M32.88,612.04h149.86"/>
      <line class="st4" x1="170.26" y1="544.1" x2="170.26" y2="614.03"/>
      <line class="st4" x1="157.77" y1="544.1" x2="157.77" y2="614.03"/>
      <line class="st4" x1="145.28" y1="544.1" x2="145.28" y2="614.03"/>
      <line class="st4" x1="132.79" y1="544.1" x2="132.79" y2="614.03"/>
      <line class="st4" x1="120.3" y1="544.1" x2="120.3" y2="614.03"/>
      <line class="st4" x1="107.82" y1="544.1" x2="107.82" y2="614.03"/>
      <line class="st4" x1="95.33" y1="544.1" x2="95.33" y2="614.03"/>
      <line class="st4" x1="82.84" y1="544.1" x2="82.84" y2="614.03"/>
      <line class="st4" x1="70.35" y1="544.1" x2="70.35" y2="614.03"/>
      <line class="st4" x1="57.86" y1="544.1" x2="57.86" y2="614.03"/>
      <line class="st4" x1="45.37" y1="544.1" x2="45.37" y2="614.03"/>
      <line class="st4" x1="32.88" y1="579.07" x2="182.75" y2="579.07"/>
      <line class="st4" x1="175.25" y1="574.07" x2="182.75" y2="579.07"/>
      <line class="st4" x1="175.25" y1="584.06" x2="182.75" y2="579.07"/>
    </g>
    <path class="st33" d="M1935.29,566.95v69.94h149.86v-69.94h-149.86Z"/>
    <g>
      <path class="st4" d="M1935.29,566.95v69.94h149.86v-69.94h-149.86Z"/>
      <path class="st4" d="M1935.29,568.95h149.86"/>
      <path class="st4" d="M1935.29,634.89h149.86"/>
      <line class="st4" x1="2072.67" y1="566.95" x2="2072.67" y2="636.89"/>
      <line class="st4" x1="2060.18" y1="566.95" x2="2060.18" y2="636.89"/>
      <line class="st4" x1="2047.69" y1="566.95" x2="2047.69" y2="636.89"/>
      <line class="st4" x1="2035.2" y1="566.95" x2="2035.2" y2="636.89"/>
      <line class="st4" x1="2022.71" y1="566.95" x2="2022.71" y2="636.89"/>
      <line class="st4" x1="2010.22" y1="566.95" x2="2010.22" y2="636.89"/>
      <line class="st4" x1="1997.73" y1="566.95" x2="1997.73" y2="636.89"/>
      <line class="st4" x1="1985.25" y1="566.95" x2="1985.25" y2="636.89"/>
      <line class="st4" x1="1972.76" y1="566.95" x2="1972.76" y2="636.89"/>
      <line class="st4" x1="1960.27" y1="566.95" x2="1960.27" y2="636.89"/>
      <line class="st4" x1="1947.78" y1="566.95" x2="1947.78" y2="636.89"/>
      <line class="st4" x1="1935.29" y1="601.92" x2="2085.15" y2="601.92"/>
      <line class="st4" x1="2077.66" y1="596.92" x2="2085.15" y2="601.92"/>
      <line class="st4" x1="2077.66" y1="606.92" x2="2085.15" y2="601.92"/>
    </g>
    <g>
      <text class="st32" transform="translate(1689.72 294.97)"><tspan x="0" y="0">8.71 m²</tspan></text>
      <text class="st20" transform="translate(1689.72 294.97)"><tspan x="0" y="0">8.71 m²</tspan></text>
    </g>
    <g>
      <text class="st32" transform="translate(1617.98 332.9)"><tspan x="0" y="0">122.13</tspan></text>
      <text class="st20" transform="translate(1617.98 332.9)"><tspan x="0" y="0">122.13</tspan></text>
    </g>
    <circle class="st3" cx="1705.75" cy="299.12" r=".75"/>
    <line class="st1" x1="1705.63" y1="319.91" x2="1705.75" y2="299.12"/>
    <path class="st29" d="M1678.42,309.92h54.41v19.98h-54.41v-19.98Z"/>
    <path class="st4" d="M1678.42,309.92h54.41v19.98h-54.41v-19.98Z"/>
    <line class="st23" x1="1705.63" y1="319.91" x2="1705.75" y2="299.12"/>
    <circle class="st6" cx="1705.75" cy="299.12" r=".75"/>
    <g>
      <text class="st32" transform="translate(1683.42 322.91)"><tspan x="0" y="0">Epoch 37</tspan></text>
      <text class="st20" transform="translate(1683.42 322.91)"><tspan x="0" y="0">Epoch 37</tspan></text>
    </g>
    <g>
      <text class="st32" transform="translate(1708.92 409.79)"><tspan x="0" y="0">7.04 m²</tspan></text>
      <text class="st20" transform="translate(1708.92 409.79)"><tspan x="0" y="0">7.04 m²</tspan></text>
    </g>
    <g>
      <text class="st32" transform="translate(1658.53 373.58)"><tspan x="0" y="0">122.14</tspan></text>
      <text class="st20" transform="translate(1658.53 373.58)"><tspan x="0" y="0">122.14</tspan></text>
    </g>
    <circle class="st3" cx="1721.41" cy="415.98" r=".75"/>
    <line class="st1" x1="1721.29" y1="436.77" x2="1721.41" y2="415.98"/>
    <path class="st29" d="M1701.03,426.78h40.52v19.98h-40.52v-19.98Z"/>
    <path class="st4" d="M1701.03,426.78h40.52v19.98h-40.52v-19.98Z"/>
    <line class="st23" x1="1721.29" y1="436.77" x2="1721.41" y2="415.98"/>
    <circle class="st6" cx="1721.41" cy="415.98" r=".75"/>
    <g>
      <text class="st32" transform="translate(1706.02 439.77)"><tspan x="0" y="0">Bustle</tspan></text>
      <text class="st20" transform="translate(1706.02 439.77)"><tspan x="0" y="0">Bustle</tspan></text>
    </g>
    <g>
      <text class="st32" transform="translate(1690 163.98)"><tspan x="0" y="0">11.3 m²</tspan></text>
      <text class="st20" transform="translate(1690 163.98)"><tspan x="0" y="0">11.3 m²</tspan></text>
    </g>
    <g>
      <text class="st32" transform="translate(1617.98 220.1)"><tspan x="0" y="0">122.12</tspan></text>
      <text class="st20" transform="translate(1617.98 220.1)"><tspan x="0" y="0">122.12</tspan></text>
    </g>
    <circle class="st3" cx="1705.75" cy="166.36" r=".75"/>
    <line class="st1" x1="1705.63" y1="187.15" x2="1705.75" y2="166.36"/>
    <path class="st29" d="M1687.03,177.16h37.2v19.98h-37.2v-19.98Z"/>
    <path class="st4" d="M1687.03,177.16h37.2v19.98h-37.2v-19.98Z"/>
    <line class="st23" x1="1705.63" y1="187.15" x2="1705.75" y2="166.36"/>
    <circle class="st6" cx="1705.75" cy="166.36" r=".75"/>
    <g>
      <text class="st32" transform="translate(1692.02 190.15)"><tspan x="0" y="0">David</tspan></text>
      <text class="st20" transform="translate(1692.02 190.15)"><tspan x="0" y="0">David</tspan></text>
    </g>
    <g>
      <text class="st32" transform="translate(1307.9 163.98)"><tspan x="0" y="0">11.3 m²</tspan></text>
      <text class="st20" transform="translate(1307.9 163.98)"><tspan x="0" y="0">11.3 m²</tspan></text>
    </g>
    <g>
      <text class="st32" transform="translate(1230.02 220.1)"><tspan x="0" y="0">122.10</tspan></text>
      <text class="st20" transform="translate(1230.02 220.1)"><tspan x="0" y="0">122.10</tspan></text>
    </g>
    <circle class="st10" cx="1334.83" cy="167.33" r=".75"/>
    <line class="st11" x1="1324.84" y1="187.31" x2="1334.83" y2="167.33"/>
    <path class="st30" d="M1307.08,177.32h35.52v19.98h-35.52v-19.98Z"/>
    <path class="st8" d="M1307.08,177.32h35.52v19.98h-35.52v-19.98Z"/>
    <line class="st19" x1="1324.84" y1="187.31" x2="1334.83" y2="167.33"/>
    <circle class="st7" cx="1334.83" cy="167.33" r=".75"/>
    <g>
      <text class="st32" transform="translate(1312.08 190.31)"><tspan x="0" y="0">Open</tspan></text>
      <text class="st20" transform="translate(1312.08 190.31)"><tspan x="0" y="0">Open</tspan></text>
    </g>
    <g>
      <text class="st32" transform="translate(972.28 164.98)"><tspan x="0" y="0">8.65 m²</tspan></text>
      <text class="st20" transform="translate(972.28 164.98)"><tspan x="0" y="0">8.65 m²</tspan></text>
    </g>
    <g>
      <text class="st32" transform="translate(928.04 220.1)"><tspan x="0" y="0">122.8</tspan></text>
      <text class="st20" transform="translate(928.04 220.1)"><tspan x="0" y="0">122.8</tspan></text>
    </g>
    <circle class="st3" cx="999.21" cy="161.98" r=".75"/>
    <line class="st1" x1="989.22" y1="181.97" x2="999.21" y2="161.98"/>
    <path class="st28" d="M971.45,171.97h35.53v19.98h-35.53v-19.98Z"/>
    <path class="st4" d="M971.45,171.97h35.53v19.98h-35.53v-19.98Z"/>
    <line class="st0" x1="989.22" y1="181.97" x2="999.21" y2="161.98"/>
    <circle class="st15" cx="999.21" cy="161.98" r=".75"/>
    <g>
      <text class="st32" transform="translate(976.45 184.96)"><tspan x="0" y="0">Kauri</tspan></text>
      <text class="st20" transform="translate(976.45 184.96)"><tspan x="0" y="0">Kauri</tspan></text>
    </g>
    <g>
      <text class="st32" transform="translate(740.37 164.98)"><tspan x="0" y="0">16.59 m²</tspan></text>
      <text class="st20" transform="translate(740.37 164.98)"><tspan x="0" y="0">16.59 m²</tspan></text>
    </g>
    <g>
      <text class="st32" transform="translate(633.04 220.1)"><tspan x="0" y="0">122.6</tspan></text>
      <text class="st20" transform="translate(633.04 220.1)"><tspan x="0" y="0">122.6</tspan></text>
    </g>
    <g>
      <text class="st32" transform="translate(873.74 126.91)"><tspan x="0" y="0">122.7</tspan></text>
      <text class="st20" transform="translate(873.74 126.91)"><tspan x="0" y="0">122.7</tspan></text>
    </g>
    <circle class="st3" cx="697.59" cy="161.98" r=".75"/>
    <line class="st1" x1="687.6" y1="181.97" x2="697.59" y2="161.98"/>
    <path class="st29" d="M634.03,171.97h107.15v19.98h-107.15v-19.98Z"/>
    <path class="st4" d="M634.03,171.97h107.15v19.98h-107.15v-19.98Z"/>
    <line class="st23" x1="687.6" y1="181.97" x2="697.59" y2="161.98"/>
    <circle class="st6" cx="697.59" cy="161.98" r=".75"/>
    <g>
      <text class="st32" transform="translate(639.02 184.96)"><tspan x="0" y="0">Members Storeroom</tspan></text>
      <text class="st20" transform="translate(639.02 184.96)"><tspan x="0" y="0">Members Storeroom</tspan></text>
    </g>
    <circle class="st3" cx="856.8" cy="160.99" r=".75"/>
    <line class="st1" x1="846.81" y1="180.97" x2="856.8" y2="160.99"/>
    <path class="st27" d="M810.17,170.98h73.28v19.98h-73.28v-19.98Z"/>
    <path class="st4" d="M810.17,170.98h73.28v19.98h-73.28v-19.98Z"/>
    <line class="st25" x1="846.81" y1="180.97" x2="856.8" y2="160.99"/>
    <circle class="st12" cx="856.8" cy="160.99" r=".75"/>
    <g>
      <text class="st32" transform="translate(815.17 183.96)"><tspan x="0" y="0">HIVE Storage</tspan></text>
      <text class="st20" transform="translate(815.17 183.96)"><tspan x="0" y="0">HIVE Storage</tspan></text>
    </g>
    <g>
      <text class="st32" transform="translate(1307.9 363.59)"><tspan x="0" y="0">11.3 m²</tspan></text>
      <text class="st20" transform="translate(1307.9 363.59)"><tspan x="0" y="0">11.3 m²</tspan></text>
    </g>
    <g>
      <text class="st32" transform="translate(1239.81 409.79)"><tspan x="0" y="0">122.17</tspan></text>
      <text class="st20" transform="translate(1239.81 409.79)"><tspan x="0" y="0">122.17</tspan></text>
    </g>
    <circle class="st3" cx="1275.56" cy="299.93" r=".75"/>
    <line class="st1" x1="1265.57" y1="319.91" x2="1275.56" y2="299.93"/>
    <path class="st29" d="M1250.58,309.92h29.98v19.98h-29.98v-19.98Z"/>
    <path class="st4" d="M1250.58,309.92h29.98v19.98h-29.98v-19.98Z"/>
    <line class="st23" x1="1265.57" y1="319.91" x2="1275.56" y2="299.93"/>
    <circle class="st6" cx="1275.56" cy="299.93" r=".75"/>
    <g>
      <text class="st32" transform="translate(1255.57 322.91)"><tspan x="0" y="0">Lisa</tspan></text>
      <text class="st20" transform="translate(1255.57 322.91)"><tspan x="0" y="0">Lisa</tspan></text>
    </g>
    <circle class="st3" cx="1387.84" cy="386.81" r=".75"/>
    <line class="st1" x1="1377.85" y1="406.8" x2="1387.84" y2="386.81"/>
    <path class="st29" d="M1342.61,396.81h70.49v19.98h-70.49v-19.98Z"/>
    <path class="st4" d="M1342.61,396.81h70.49v19.98h-70.49v-19.98Z"/>
    <line class="st23" x1="1377.85" y1="406.8" x2="1387.84" y2="386.81"/>
    <circle class="st6" cx="1387.84" cy="386.81" r=".75"/>
    <g>
      <text class="st32" transform="translate(1347.6 409.79)"><tspan x="0" y="0">Lamp Studio</tspan></text>
      <text class="st20" transform="translate(1347.6 409.79)"><tspan x="0" y="0">Lamp Studio</tspan></text>
    </g>
    <g>
      <text class="st32" transform="translate(1351.17 511.35) rotate(90)"><tspan x="0" y="0">10.66 m²</tspan></text>
      <text class="st20" transform="translate(1351.17 511.35) rotate(90)"><tspan x="0" y="0">10.66 m²</tspan></text>
    </g>
    <g>
      <text class="st32" transform="translate(1338.89 464.28)"><tspan x="0" y="0">122.16</tspan></text>
      <text class="st20" transform="translate(1338.89 464.28)"><tspan x="0" y="0">122.16</tspan></text>
    </g>
    <circle class="st3" cx="1363.13" cy="556.59" r=".75"/>
    <line class="st1" x1="1353.14" y1="576.57" x2="1363.13" y2="556.59"/>
    <path class="st28" d="M1293.18,566.58h119.91v19.98h-119.91v-19.98Z"/>
    <path class="st4" d="M1293.18,566.58h119.91v19.98h-119.91v-19.98Z"/>
    <line class="st0" x1="1353.14" y1="576.57" x2="1363.13" y2="556.59"/>
    <circle class="st15" cx="1363.13" cy="556.59" r=".75"/>
    <g>
      <text class="st32" transform="translate(1298.17 579.57)"><tspan x="0" y="0">Backhouse Boardroom</tspan></text>
      <text class="st20" transform="translate(1298.17 579.57)"><tspan x="0" y="0">Backhouse Boardroom</tspan></text>
    </g>
    <g>
      <text class="st32" transform="translate(466.66 164.48)"><tspan x="0" y="0">13.79 m²</tspan></text>
      <text class="st20" transform="translate(466.66 164.48)"><tspan x="0" y="0">13.79 m²</tspan></text>
    </g>
    <g>
      <text class="st32" transform="translate(375.6 220.1)"><tspan x="0" y="0">122.5</tspan></text>
      <text class="st20" transform="translate(375.6 220.1)"><tspan x="0" y="0">122.5</tspan></text>
    </g>
    <circle class="st3" cx="496.64" cy="170.98" r=".75"/>
    <line class="st1" x1="486.65" y1="190.96" x2="496.64" y2="170.98"/>
    <path class="st29" d="M442.06,180.97h89.18v19.98h-89.18v-19.98Z"/>
    <path class="st4" d="M442.06,180.97h89.18v19.98h-89.18v-19.98Z"/>
    <line class="st23" x1="486.65" y1="190.96" x2="496.64" y2="170.98"/>
    <circle class="st6" cx="496.64" cy="170.98" r=".75"/>
    <g>
      <text class="st32" transform="translate(447.06 193.96)"><tspan x="0" y="0">Whanganui Tech</tspan></text>
      <text class="st20" transform="translate(447.06 193.96)"><tspan x="0" y="0">Whanganui Tech</tspan></text>
    </g>
    <g>
      <text class="st32" transform="translate(115.14 159.03)"><tspan x="0" y="0">10.27 m²</tspan></text>
      <text class="st20" transform="translate(115.14 159.03)"><tspan x="0" y="0">10.27 m²</tspan></text>
    </g>
    <circle class="st3" cx="145.12" cy="161.98" r=".75"/>
    <line class="st1" x1="135.13" y1="181.97" x2="145.12" y2="161.98"/>
    <path class="st29" d="M115.98,171.97h38.29v19.98h-38.29v-19.98Z"/>
    <path class="st4" d="M115.98,171.97h38.29v19.98h-38.29v-19.98Z"/>
    <line class="st23" x1="135.13" y1="181.97" x2="145.12" y2="161.98"/>
    <circle class="st6" cx="145.12" cy="161.98" r=".75"/>
    <g>
      <text class="st32" transform="translate(120.98 184.96)"><tspan x="0" y="0">MIKE!</tspan></text>
      <text class="st20" transform="translate(120.98 184.96)"><tspan x="0" y="0">MIKE!</tspan></text>
    </g>
    <g>
      <text class="st32" transform="translate(198.19 210.11)"><tspan x="0" y="0">122.3</tspan></text>
      <text class="st20" transform="translate(198.19 210.11)"><tspan x="0" y="0">122.3</tspan></text>
    </g>
    <g>
      <text class="st32" transform="translate(115.14 332.42)"><tspan x="0" y="0">15.91 m²</tspan></text>
      <text class="st20" transform="translate(115.14 332.42)"><tspan x="0" y="0">15.91 m²</tspan></text>
    </g>
    <g>
      <text class="st32" transform="translate(198.19 251.86)"><tspan x="0" y="0">122.2</tspan></text>
      <text class="st20" transform="translate(198.19 251.86)"><tspan x="0" y="0">122.2</tspan></text>
    </g>
    <circle class="st3" cx="146.52" cy="340.61" r=".75"/>
    <line class="st1" x1="136.53" y1="360.59" x2="146.52" y2="340.61"/>
    <path class="st28" d="M117.93,350.6h37.2v19.98h-37.2v-19.98Z"/>
    <path class="st4" d="M117.93,350.6h37.2v19.98h-37.2v-19.98Z"/>
    <line class="st0" x1="136.53" y1="360.59" x2="146.52" y2="340.61"/>
    <circle class="st15" cx="146.52" cy="340.61" r=".75"/>
    <g>
      <text class="st32" transform="translate(122.92 363.59)"><tspan x="0" y="0">Nikau</tspan></text>
      <text class="st20" transform="translate(122.92 363.59)"><tspan x="0" y="0">Nikau</tspan></text>
    </g>
    <g>
      <text class="st32" transform="translate(116.53 494.25)"><tspan x="0" y="0">7.47 m²</tspan></text>
      <text class="st20" transform="translate(116.53 494.25)"><tspan x="0" y="0">7.47 m²</tspan></text>
    </g>
    <g>
      <text class="st32" transform="translate(198.19 454.49)"><tspan x="0" y="0">122.1</tspan></text>
      <text class="st20" transform="translate(198.19 454.49)"><tspan x="0" y="0">122.1</tspan></text>
    </g>
    <circle class="st13" cx="142.28" cy="496.37" r=".75"/>
    <line class="st14" x1="132.29" y1="516.35" x2="142.28" y2="496.37"/>
    <path class="st28" d="M98.98,506.36h66.62v19.98h-66.62v-19.98Z"/>
    <path class="st18" d="M98.98,506.36h66.62v19.98h-66.62v-19.98Z"/>
    <line class="st0" x1="132.29" y1="516.35" x2="142.28" y2="496.37"/>
    <circle class="st15" cx="142.28" cy="496.37" r=".75"/>
    <g>
      <text class="st32" transform="translate(103.97 519.35)"><tspan x="0" y="0">Hive Corner</tspan></text>
      <text class="st20" transform="translate(103.97 519.35)"><tspan x="0" y="0">Hive Corner</tspan></text>
    </g>
    <g>
      <text class="st32" transform="translate(1921 792.59)"><tspan x="0" y="0">16.47 m²</tspan></text>
      <text class="st20" transform="translate(1921 792.59)"><tspan x="0" y="0">16.47 m²</tspan></text>
    </g>
    <circle class="st3" cx="1950.98" cy="875.97" r=".75"/>
    <line class="st1" x1="1940.99" y1="895.95" x2="1950.98" y2="875.97"/>
    <path class="st28" d="M1893.8,885.96h94.38v19.98h-94.38v-19.98Z"/>
    <path class="st4" d="M1893.8,885.96h94.38v19.98h-94.38v-19.98Z"/>
    <line class="st0" x1="1940.99" y1="895.95" x2="1950.98" y2="875.97"/>
    <circle class="st15" cx="1950.98" cy="875.97" r=".75"/>
    <g>
      <text class="st32" transform="translate(1898.8 898.95)"><tspan x="0" y="0">Female Bathroom</tspan></text>
      <text class="st20" transform="translate(1898.8 898.95)"><tspan x="0" y="0">Female Bathroom</tspan></text>
    </g>
    <circle class="st3" cx="1950.98" cy="800.56" r=".75"/>
    <line class="st1" x1="1940.99" y1="820.54" x2="1950.98" y2="800.56"/>
    <path class="st28" d="M1899.91,810.55h82.16v19.98h-82.16v-19.98Z"/>
    <path class="st4" d="M1899.91,810.55h82.16v19.98h-82.16v-19.98Z"/>
    <line class="st0" x1="1940.99" y1="820.54" x2="1950.98" y2="800.56"/>
    <circle class="st15" cx="1950.98" cy="800.56" r=".75"/>
    <g>
      <text class="st32" transform="translate(1904.91 823.54)"><tspan x="0" y="0">Male Bathroom</tspan></text>
      <text class="st20" transform="translate(1904.91 823.54)"><tspan x="0" y="0">Male Bathroom</tspan></text>
    </g>
    <circle class="st3" cx="1950.98" cy="683.73" r=".75"/>
    <line class="st1" x1="1940.99" y1="703.71" x2="1950.98" y2="683.73"/>
    <path class="st28" d="M1912.41,693.72h57.17v19.98h-57.17v-19.98Z"/>
    <path class="st4" d="M1912.41,693.72h57.17v19.98h-57.17v-19.98Z"/>
    <line class="st0" x1="1940.99" y1="703.71" x2="1950.98" y2="683.73"/>
    <circle class="st15" cx="1950.98" cy="683.73" r=".75"/>
    <g>
      <text class="st32" transform="translate(1917.4 706.71)"><tspan x="0" y="0">Bathroom</tspan></text>
      <text class="st20" transform="translate(1917.4 706.71)"><tspan x="0" y="0">Bathroom</tspan></text>
    </g>
    <g>
      <text class="st32" transform="translate(1588.52 843.52)"><tspan x="0" y="0">24.63 m²</tspan></text>
      <text class="st20" transform="translate(1588.52 843.52)"><tspan x="0" y="0">24.63 m²</tspan></text>
    </g>
    <circle class="st13" cx="1615.72" cy="849.9" r=".75"/>
    <line class="st14" x1="1605.73" y1="869.88" x2="1615.72" y2="849.9"/>
    <path class="st28" d="M1553.82,859.89h103.81v19.98h-103.81v-19.98Z"/>
    <path class="st18" d="M1553.82,859.89h103.81v19.98h-103.81v-19.98Z"/>
    <line class="st0" x1="1605.73" y1="869.88" x2="1615.72" y2="849.9"/>
    <circle class="st15" cx="1615.72" cy="849.9" r=".75"/>
    <g>
      <text class="st32" transform="translate(1558.82 872.88)"><tspan x="0" y="0">Hive Training Room</tspan></text>
      <text class="st20" transform="translate(1558.82 872.88)"><tspan x="0" y="0">Hive Training Room</tspan></text>
    </g>
    <g>
      <text class="st32" transform="translate(1714.29 918.93)"><tspan x="0" y="0">116.13</tspan></text>
      <text class="st20" transform="translate(1714.29 918.93)"><tspan x="0" y="0">116.13</tspan></text>
    </g>
    <g>
      <text class="st32" transform="translate(1335.78 843.52)"><tspan x="0" y="0">16 m²</tspan></text>
      <text class="st20" transform="translate(1335.78 843.52)"><tspan x="0" y="0">16 m²</tspan></text>
    </g>
    <circle class="st13" cx="1352.16" cy="849.9" r=".75"/>
    <line class="st14" x1="1342.17" y1="869.88" x2="1352.16" y2="849.9"/>
    <path class="st28" d="M1315.52,859.89h53.29v19.98h-53.29v-19.98Z"/>
    <path class="st18" d="M1315.52,859.89h53.29v19.98h-53.29v-19.98Z"/>
    <line class="st0" x1="1342.17" y1="869.88" x2="1352.16" y2="849.9"/>
    <circle class="st15" cx="1352.16" cy="849.9" r=".75"/>
    <g>
      <text class="st32" transform="translate(1320.52 872.88)"><tspan x="0" y="0">Manukau</tspan></text>
      <text class="st20" transform="translate(1320.52 872.88)"><tspan x="0" y="0">Manukau</tspan></text>
    </g>
    <g>
      <text class="st32" transform="translate(1409.14 918.93)"><tspan x="0" y="0">116.14</tspan></text>
      <text class="st20" transform="translate(1409.14 918.93)"><tspan x="0" y="0">116.14</tspan></text>
    </g>
    <g>
      <text class="st32" transform="translate(1018.61 844.08)"><tspan x="0" y="0">10.87 m²</tspan></text>
      <text class="st20" transform="translate(1018.61 844.08)"><tspan x="0" y="0">10.87 m²</tspan></text>
    </g>
    <circle class="st10" cx="1048.59" cy="849.9" r=".75"/>
    <line class="st11" x1="1038.6" y1="869.88" x2="1048.59" y2="849.9"/>
    <path class="st30" d="M1020.84,859.89h35.52v19.98h-35.52v-19.98Z"/>
    <path class="st8" d="M1020.84,859.89h35.52v19.98h-35.52v-19.98Z"/>
    <line class="st19" x1="1038.6" y1="869.88" x2="1048.59" y2="849.9"/>
    <circle class="st7" cx="1048.59" cy="849.9" r=".75"/>
    <g>
      <text class="st32" transform="translate(1025.83 872.88)"><tspan x="0" y="0">Open</tspan></text>
      <text class="st20" transform="translate(1025.83 872.88)"><tspan x="0" y="0">Open</tspan></text>
    </g>
    <g>
      <text class="st32" transform="translate(1069.34 918.93)"><tspan x="0" y="0">116.16</tspan></text>
      <text class="st20" transform="translate(1069.34 918.93)"><tspan x="0" y="0">116.16</tspan></text>
    </g>
    <g>
      <text class="st32" transform="translate(1143.41 843.52)"><tspan x="0" y="0">10.42 m²</tspan></text>
      <text class="st20" transform="translate(1143.41 843.52)"><tspan x="0" y="0">10.42 m²</tspan></text>
    </g>
    <g>
      <text class="st32" transform="translate(1205.01 918.93)"><tspan x="0" y="0">116.15</tspan></text>
      <text class="st20" transform="translate(1205.01 918.93)"><tspan x="0" y="0">116.15</tspan></text>
    </g>
    <circle class="st3" cx="1185.25" cy="846.23" r=".75"/>
    <line class="st1" x1="1175.26" y1="866.21" x2="1185.25" y2="846.23"/>
    <path class="st29" d="M1145.56,856.22h59.4v19.98h-59.4v-19.98Z"/>
    <path class="st4" d="M1145.56,856.22h59.4v19.98h-59.4v-19.98Z"/>
    <line class="st23" x1="1175.26" y1="866.21" x2="1185.25" y2="846.23"/>
    <circle class="st6" cx="1185.25" cy="846.23" r=".75"/>
    <g>
      <text class="st32" transform="translate(1150.56 869.21)"><tspan x="0" y="0">Nga Remu</tspan></text>
      <text class="st20" transform="translate(1150.56 869.21)"><tspan x="0" y="0">Nga Remu</tspan></text>
    </g>
    <g>
      <text class="st32" transform="translate(1047.13 559.59)"><tspan x="0" y="0">39.85 m²</tspan></text>
      <text class="st20" transform="translate(1047.13 559.59)"><tspan x="0" y="0">39.85 m²</tspan></text>
    </g>
    <circle class="st13" cx="1077.12" cy="576.57" r=".75"/>
    <line class="st14" x1="1067.13" y1="596.55" x2="1077.12" y2="576.57"/>
    <path class="st27" d="M1031.04,586.56h72.18v19.98h-72.18v-19.98Z"/>
    <path class="st18" d="M1031.04,586.56h72.18v19.98h-72.18v-19.98Z"/>
    <line class="st25" x1="1067.13" y1="596.55" x2="1077.12" y2="576.57"/>
    <circle class="st12" cx="1077.12" cy="576.57" r=".75"/>
    <g>
      <text class="st32" transform="translate(1036.03 599.55)"><tspan x="0" y="0">Server Room</tspan></text>
      <text class="st20" transform="translate(1036.03 599.55)"><tspan x="0" y="0">Server Room</tspan></text>
    </g>
    <g>
      <text class="st32" transform="translate(927.68 641.77)"><tspan x="0" y="0">116.17</tspan></text>
      <text class="st20" transform="translate(927.68 641.77)"><tspan x="0" y="0">116.17</tspan></text>
    </g>
    <g>
      <text class="st32" transform="translate(765.01 844.77)"><tspan x="0" y="0">10.52 m²</tspan></text>
      <text class="st20" transform="translate(765.01 844.77)"><tspan x="0" y="0">10.52 m²</tspan></text>
    </g>
    <g>
      <text class="st32" transform="translate(809.97 914.93)"><tspan x="0" y="0">116.21</tspan></text>
      <text class="st20" transform="translate(809.97 914.93)"><tspan x="0" y="0">116.21</tspan></text>
    </g>
    <circle class="st3" cx="794.99" cy="849.9" r=".75"/>
    <line class="st1" x1="785" y1="869.88" x2="794.99" y2="849.9"/>
    <path class="st29" d="M769.18,859.89h31.63v19.98h-31.63v-19.98Z"/>
    <path class="st4" d="M769.18,859.89h31.63v19.98h-31.63v-19.98Z"/>
    <line class="st23" x1="785" y1="869.88" x2="794.99" y2="849.9"/>
    <circle class="st6" cx="794.99" cy="849.9" r=".75"/>
    <g>
      <text class="st32" transform="translate(774.18 872.88)"><tspan x="0" y="0">TMA</tspan></text>
      <text class="st20" transform="translate(774.18 872.88)"><tspan x="0" y="0">TMA</tspan></text>
    </g>
    <g>
      <text class="st32" transform="translate(617.89 844.77)"><tspan x="0" y="0">12.08 m²</tspan></text>
      <text class="st20" transform="translate(617.89 844.77)"><tspan x="0" y="0">12.08 m²</tspan></text>
    </g>
    <g>
      <text class="st32" transform="translate(672.1 914.93)"><tspan x="0" y="0">116.20</tspan></text>
      <text class="st20" transform="translate(672.1 914.93)"><tspan x="0" y="0">116.20</tspan></text>
    </g>
    <circle class="st3" cx="645.64" cy="849.9" r=".75"/>
    <line class="st1" x1="635.65" y1="869.88" x2="645.64" y2="849.9"/>
    <path class="st29" d="M612.9,859.89h45.5v19.98h-45.5v-19.98Z"/>
    <path class="st4" d="M612.9,859.89h45.5v19.98h-45.5v-19.98Z"/>
    <line class="st23" x1="635.65" y1="869.88" x2="645.64" y2="849.9"/>
    <circle class="st6" cx="645.64" cy="849.9" r=".75"/>
    <g>
      <text class="st32" transform="translate(617.89 872.88)"><tspan x="0" y="0">WDETT</tspan></text>
      <text class="st20" transform="translate(617.89 872.88)"><tspan x="0" y="0">WDETT</tspan></text>
    </g>
    <g>
      <text class="st32" transform="translate(686.57 609.54)"><tspan x="0" y="0">29.59 m²</tspan></text>
      <text class="st20" transform="translate(686.57 609.54)"><tspan x="0" y="0">29.59 m²</tspan></text>
    </g>
    <circle class="st13" cx="714.32" cy="618.79" r=".75"/>
    <line class="st14" x1="704.33" y1="638.77" x2="714.32" y2="618.79"/>
    <path class="st28" d="M672.41,628.78h63.84v19.98h-63.84v-19.98Z"/>
    <path class="st18" d="M672.41,628.78h63.84v19.98h-63.84v-19.98Z"/>
    <line class="st0" x1="704.33" y1="638.77" x2="714.32" y2="618.79"/>
    <circle class="st15" cx="714.32" cy="618.79" r=".75"/>
    <g>
      <text class="st32" transform="translate(677.41 641.77)"><tspan x="0" y="0">Design Lab</tspan></text>
      <text class="st20" transform="translate(677.41 641.77)"><tspan x="0" y="0">Design Lab</tspan></text>
    </g>
    <g>
      <text class="st32" transform="translate(809.97 641.77)"><tspan x="0" y="0">116.18</tspan></text>
      <text class="st20" transform="translate(809.97 641.77)"><tspan x="0" y="0">116.18</tspan></text>
    </g>
    <g>
      <text class="st32" transform="translate(426.21 609.54)"><tspan x="0" y="0">22.63 m²</tspan></text>
      <text class="st20" transform="translate(426.21 609.54)"><tspan x="0" y="0">22.63 m²</tspan></text>
    </g>
    <circle class="st13" cx="448.22" cy="618.79" r=".75"/>
    <line class="st14" x1="438.23" y1="638.77" x2="448.22" y2="618.79"/>
    <path class="st27" d="M404.93,628.78h66.61v19.98h-66.61v-19.98Z"/>
    <path class="st18" d="M404.93,628.78h66.61v19.98h-66.61v-19.98Z"/>
    <line class="st25" x1="438.23" y1="638.77" x2="448.22" y2="618.79"/>
    <circle class="st12" cx="448.22" cy="618.79" r=".75"/>
    <g>
      <text class="st32" transform="translate(409.92 641.77)"><tspan x="0" y="0">Store Room</tspan></text>
      <text class="st20" transform="translate(409.92 641.77)"><tspan x="0" y="0">Store Room</tspan></text>
    </g>
    <g>
      <text class="st32" transform="translate(513.98 714.48)"><tspan x="0" y="0">116.19</tspan></text>
      <text class="st20" transform="translate(513.98 714.48)"><tspan x="0" y="0">116.19</tspan></text>
    </g>
    <g>
      <text class="st32" transform="translate(123.13 1043.7)"><tspan x="0" y="0">20.03 m²</tspan></text>
      <text class="st20" transform="translate(123.13 1043.7)"><tspan x="0" y="0">20.03 m²</tspan></text>
    </g>
    <circle class="st3" cx="146.19" cy="1054.54" r=".75"/>
    <line class="st1" x1="136.2" y1="1074.52" x2="146.19" y2="1054.54"/>
    <path class="st29" d="M113.45,1064.53h45.5v19.98h-45.5v-19.98Z"/>
    <path class="st4" d="M113.45,1064.53h45.5v19.98h-45.5v-19.98Z"/>
    <line class="st23" x1="136.2" y1="1074.52" x2="146.19" y2="1054.54"/>
    <circle class="st6" cx="146.19" cy="1054.54" r=".75"/>
    <g>
      <text class="st32" transform="translate(118.44 1077.52)"><tspan x="0" y="0">WDETT</tspan></text>
      <text class="st20" transform="translate(118.44 1077.52)"><tspan x="0" y="0">WDETT</tspan></text>
    </g>
    <g>
      <text class="st32" transform="translate(207.96 951.41)"><tspan x="0" y="0">116.2</tspan></text>
      <text class="st20" transform="translate(207.96 951.41)"><tspan x="0" y="0">116.2</tspan></text>
    </g>
    <g>
      <text class="st32" transform="translate(123.13 1283.28)"><tspan x="0" y="0">20.03 m²</tspan></text>
      <text class="st20" transform="translate(123.13 1283.28)"><tspan x="0" y="0">20.03 m²</tspan></text>
    </g>
    <circle class="st3" cx="150.87" cy="1288.56" r=".75"/>
    <line class="st1" x1="140.88" y1="1308.54" x2="150.87" y2="1288.56"/>
    <path class="st29" d="M118.13,1298.55h45.5v19.98h-45.5v-19.98Z"/>
    <path class="st4" d="M118.13,1298.55h45.5v19.98h-45.5v-19.98Z"/>
    <line class="st23" x1="140.88" y1="1308.54" x2="150.87" y2="1288.56"/>
    <circle class="st6" cx="150.87" cy="1288.56" r=".75"/>
    <g>
      <text class="st32" transform="translate(123.13 1311.53)"><tspan x="0" y="0">WDETT</tspan></text>
      <text class="st20" transform="translate(123.13 1311.53)"><tspan x="0" y="0">WDETT</tspan></text>
    </g>
    <g>
      <text class="st32" transform="translate(207.96 1194.54)"><tspan x="0" y="0">116.3</tspan></text>
      <text class="st20" transform="translate(207.96 1194.54)"><tspan x="0" y="0">116.3</tspan></text>
    </g>
    <g>
      <text class="st32" transform="translate(563.35 1311.53)"><tspan x="0" y="0">12.36 m²</tspan></text>
      <text class="st20" transform="translate(563.35 1311.53)"><tspan x="0" y="0">12.36 m²</tspan></text>
    </g>
    <circle class="st3" cx="593.33" cy="1315.96" r=".75"/>
    <line class="st1" x1="583.34" y1="1335.94" x2="593.33" y2="1315.96"/>
    <path class="st29" d="M567.53,1325.95h31.63v19.98h-31.63v-19.98Z"/>
    <path class="st4" d="M567.53,1325.95h31.63v19.98h-31.63v-19.98Z"/>
    <line class="st23" x1="583.34" y1="1335.94" x2="593.33" y2="1315.96"/>
    <circle class="st6" cx="593.33" cy="1315.96" r=".75"/>
    <g>
      <text class="st32" transform="translate(572.52 1338.94)"><tspan x="0" y="0">TMA</tspan></text>
      <text class="st20" transform="translate(572.52 1338.94)"><tspan x="0" y="0">TMA</tspan></text>
    </g>
    <g>
      <text class="st32" transform="translate(625.66 1239.52)"><tspan x="0" y="0">116.5</tspan></text>
      <text class="st20" transform="translate(625.66 1239.52)"><tspan x="0" y="0">116.5</tspan></text>
    </g>
    <g>
      <text class="st32" transform="translate(743.57 1311.53)"><tspan x="0" y="0">12.36 m²</tspan></text>
      <text class="st20" transform="translate(743.57 1311.53)"><tspan x="0" y="0">12.36 m²</tspan></text>
    </g>
    <circle class="st3" cx="764.38" cy="1315.96" r=".75"/>
    <line class="st1" x1="754.39" y1="1335.94" x2="764.38" y2="1315.96"/>
    <path class="st29" d="M738.57,1325.95h31.63v19.98h-31.63v-19.98Z"/>
    <path class="st4" d="M738.57,1325.95h31.63v19.98h-31.63v-19.98Z"/>
    <line class="st23" x1="754.39" y1="1335.94" x2="764.38" y2="1315.96"/>
    <circle class="st6" cx="764.38" cy="1315.96" r=".75"/>
    <g>
      <text class="st32" transform="translate(743.57 1338.94)"><tspan x="0" y="0">TMA</tspan></text>
      <text class="st20" transform="translate(743.57 1338.94)"><tspan x="0" y="0">TMA</tspan></text>
    </g>
    <g>
      <text class="st32" transform="translate(812.74 1239.52)"><tspan x="0" y="0">116.6</tspan></text>
      <text class="st20" transform="translate(812.74 1239.52)"><tspan x="0" y="0">116.6</tspan></text>
    </g>
    <g>
      <text class="st32" transform="translate(923.79 1311.53)"><tspan x="0" y="0">12.36 m²</tspan></text>
      <text class="st20" transform="translate(923.79 1311.53)"><tspan x="0" y="0">12.36 m²</tspan></text>
    </g>
    <g>
      <text class="st32" transform="translate(991.39 1239.52)"><tspan x="0" y="0">116.7</tspan></text>
      <text class="st20" transform="translate(991.39 1239.52)"><tspan x="0" y="0">116.7</tspan></text>
    </g>
    <circle class="st3" cx="953.77" cy="1315.96" r=".75"/>
    <line class="st1" x1="943.78" y1="1335.94" x2="953.77" y2="1315.96"/>
    <path class="st29" d="M924.63,1325.95h38.29v19.98h-38.29v-19.98Z"/>
    <path class="st4" d="M924.63,1325.95h38.29v19.98h-38.29v-19.98Z"/>
    <line class="st23" x1="943.78" y1="1335.94" x2="953.77" y2="1315.96"/>
    <circle class="st6" cx="953.77" cy="1315.96" r=".75"/>
    <g>
      <text class="st32" transform="translate(929.63 1338.94)"><tspan x="0" y="0">Aritzo</tspan></text>
      <text class="st20" transform="translate(929.63 1338.94)"><tspan x="0" y="0">Aritzo</tspan></text>
    </g>
    <g>
      <text class="st32" transform="translate(1104.01 1311.53)"><tspan x="0" y="0">12.36 m²</tspan></text>
      <text class="st20" transform="translate(1104.01 1311.53)"><tspan x="0" y="0">12.36 m²</tspan></text>
    </g>
    <circle class="st10" cx="1126.76" cy="1315.96" r=".75"/>
    <line class="st11" x1="1116.77" y1="1335.94" x2="1126.76" y2="1315.96"/>
    <path class="st30" d="M1099.01,1325.95h35.52v19.98h-35.52v-19.98Z"/>
    <path class="st8" d="M1099.01,1325.95h35.52v19.98h-35.52v-19.98Z"/>
    <line class="st19" x1="1116.77" y1="1335.94" x2="1126.76" y2="1315.96"/>
    <circle class="st7" cx="1126.76" cy="1315.96" r=".75"/>
    <g>
      <text class="st32" transform="translate(1104.01 1338.94)"><tspan x="0" y="0">Open</tspan></text>
      <text class="st20" transform="translate(1104.01 1338.94)"><tspan x="0" y="0">Open</tspan></text>
    </g>
    <g>
      <text class="st32" transform="translate(1167.79 1239.52)"><tspan x="0" y="0">116.8</tspan></text>
      <text class="st20" transform="translate(1167.79 1239.52)"><tspan x="0" y="0">116.8</tspan></text>
    </g>
    <g>
      <text class="st32" transform="translate(1284.23 1311.53)"><tspan x="0" y="0">12.36 m²</tspan></text>
      <text class="st20" transform="translate(1284.23 1311.53)"><tspan x="0" y="0">12.36 m²</tspan></text>
    </g>
    <circle class="st10" cx="1314.21" cy="1315.96" r=".75"/>
    <line class="st11" x1="1304.22" y1="1335.94" x2="1314.21" y2="1315.96"/>
    <path class="st30" d="M1286.46,1325.95h35.52v19.98h-35.52v-19.98Z"/>
    <path class="st8" d="M1286.46,1325.95h35.52v19.98h-35.52v-19.98Z"/>
    <line class="st19" x1="1304.22" y1="1335.94" x2="1314.21" y2="1315.96"/>
    <circle class="st7" cx="1314.21" cy="1315.96" r=".75"/>
    <g>
      <text class="st32" transform="translate(1291.45 1338.94)"><tspan x="0" y="0">Open</tspan></text>
      <text class="st20" transform="translate(1291.45 1338.94)"><tspan x="0" y="0">Open</tspan></text>
    </g>
    <g>
      <text class="st32" transform="translate(1352.15 1239.52)"><tspan x="0" y="0">116.9</tspan></text>
      <text class="st20" transform="translate(1352.15 1239.52)"><tspan x="0" y="0">116.9</tspan></text>
    </g>
    <g>
      <text class="st32" transform="translate(1464.45 1311.53)"><tspan x="0" y="0">12.36 m²</tspan></text>
      <text class="st20" transform="translate(1464.45 1311.53)"><tspan x="0" y="0">12.36 m²</tspan></text>
    </g>
    <circle class="st10" cx="1487.2" cy="1315.96" r=".75"/>
    <line class="st11" x1="1477.21" y1="1335.94" x2="1487.2" y2="1315.96"/>
    <path class="st30" d="M1459.45,1325.95h35.52v19.98h-35.52v-19.98Z"/>
    <path class="st8" d="M1459.45,1325.95h35.52v19.98h-35.52v-19.98Z"/>
    <line class="st19" x1="1477.21" y1="1335.94" x2="1487.2" y2="1315.96"/>
    <circle class="st7" cx="1487.2" cy="1315.96" r=".75"/>
    <g>
      <text class="st32" transform="translate(1464.45 1338.94)"><tspan x="0" y="0">Open</tspan></text>
      <text class="st20" transform="translate(1464.45 1338.94)"><tspan x="0" y="0">Open</tspan></text>
    </g>
    <g>
      <text class="st32" transform="translate(1526.78 1239.52)"><tspan x="0" y="0">116.10</tspan></text>
      <text class="st20" transform="translate(1526.78 1239.52)"><tspan x="0" y="0">116.10</tspan></text>
    </g>
    <g>
      <text class="st32" transform="translate(1669.89 1311.53)"><tspan x="0" y="0">16.03 m²</tspan></text>
      <text class="st20" transform="translate(1669.89 1311.53)"><tspan x="0" y="0">16.03 m²</tspan></text>
    </g>
    <g>
      <text class="st32" transform="translate(1755.1 1239.52)"><tspan x="0" y="0">116.11</tspan></text>
      <text class="st20" transform="translate(1755.1 1239.52)"><tspan x="0" y="0">116.11</tspan></text>
    </g>
    <circle class="st10" cx="1699.87" cy="1315.96" r=".75"/>
    <line class="st11" x1="1689.88" y1="1335.94" x2="1699.87" y2="1315.96"/>
    <path class="st30" d="M1672.12,1325.95h35.52v19.98h-35.52v-19.98Z"/>
    <path class="st8" d="M1672.12,1325.95h35.52v19.98h-35.52v-19.98Z"/>
    <line class="st19" x1="1689.88" y1="1335.94" x2="1699.87" y2="1315.96"/>
    <circle class="st7" cx="1699.87" cy="1315.96" r=".75"/>
    <g>
      <text class="st32" transform="translate(1677.11 1338.94)"><tspan x="0" y="0">Open</tspan></text>
      <text class="st20" transform="translate(1677.11 1338.94)"><tspan x="0" y="0">Open</tspan></text>
    </g>
    <circle class="st10" cx="1104.61" cy="302.68" r=".5"/>
    <line class="st9" x1="1094.62" y1="322.66" x2="1104.61" y2="302.68"/>
    <path class="st30" d="M1081.55,315.42h26.14v14.49h-26.14v-14.49Z"/>
    <path class="st8" d="M1081.55,315.42h26.14v14.49h-26.14v-14.49Z"/>
    <line class="st26" x1="1094.62" y1="322.66" x2="1104.61" y2="302.68"/>
    <circle class="st7" cx="1104.61" cy="302.68" r=".5"/>
    <g>
      <text class="st35" transform="translate(1085.04 324.91)"><tspan x="0" y="0">Open</tspan></text>
      <text class="st21" transform="translate(1085.04 324.91)"><tspan x="0" y="0">Open</tspan></text>
    </g>
    <circle class="st10" cx="1143.2" cy="302.68" r=".5"/>
    <line class="st9" x1="1133.21" y1="322.66" x2="1143.2" y2="302.68"/>
    <path class="st30" d="M1120.14,315.42h26.14v14.49h-26.14v-14.49Z"/>
    <path class="st8" d="M1120.14,315.42h26.14v14.49h-26.14v-14.49Z"/>
    <line class="st26" x1="1133.21" y1="322.66" x2="1143.2" y2="302.68"/>
    <circle class="st7" cx="1143.2" cy="302.68" r=".5"/>
    <g>
      <text class="st35" transform="translate(1123.64 324.91)"><tspan x="0" y="0">Open</tspan></text>
      <text class="st21" transform="translate(1123.64 324.91)"><tspan x="0" y="0">Open</tspan></text>
    </g>
    <circle class="st10" cx="1143.2" cy="386.81" r=".5"/>
    <line class="st9" x1="1133.21" y1="406.8" x2="1143.2" y2="386.81"/>
    <path class="st30" d="M1120.14,399.55h26.14v14.49h-26.14v-14.49Z"/>
    <path class="st8" d="M1120.14,399.55h26.14v14.49h-26.14v-14.49Z"/>
    <line class="st26" x1="1133.21" y1="406.8" x2="1143.2" y2="386.81"/>
    <circle class="st7" cx="1143.2" cy="386.81" r=".5"/>
    <g>
      <text class="st35" transform="translate(1123.64 409.04)"><tspan x="0" y="0">Open</tspan></text>
      <text class="st21" transform="translate(1123.64 409.04)"><tspan x="0" y="0">Open</tspan></text>
    </g>
    <circle class="st3" cx="1102.11" cy="386.81" r=".5"/>
    <line class="st2" x1="1092.12" y1="406.8" x2="1102.11" y2="386.81"/>
    <path class="st29" d="M1078.21,399.55h27.82v14.49h-27.82v-14.49Z"/>
    <path class="st4" d="M1078.21,399.55h27.82v14.49h-27.82v-14.49Z"/>
    <line class="st22" x1="1092.12" y1="406.8" x2="1102.11" y2="386.81"/>
    <circle class="st6" cx="1102.11" cy="386.81" r=".5"/>
    <g>
      <text class="st35" transform="translate(1081.7 409.04)"><tspan x="0" y="0">Sarah</tspan></text>
      <text class="st21" transform="translate(1081.7 409.04)"><tspan x="0" y="0">Sarah</tspan></text>
    </g>
    <g>
      <text class="st32" transform="translate(324.59 184.46)"><tspan x="0" y="0">122.4</tspan></text>
      <text class="st20" transform="translate(324.59 184.46)"><tspan x="0" y="0">122.4</tspan></text>
    </g>
    <g>
      <text class="st32" transform="translate(1082.1 230.09)"><tspan x="0" y="0">122.9</tspan></text>
      <text class="st20" transform="translate(1082.1 230.09)"><tspan x="0" y="0">122.9</tspan></text>
    </g>
    <g>
      <text class="st32" transform="translate(1443.71 230.09)"><tspan x="0" y="0">122.11</tspan></text>
      <text class="st20" transform="translate(1443.71 230.09)"><tspan x="0" y="0">122.11</tspan></text>
    </g>
    <g>
      <text class="st32" transform="translate(1443.72 419.78)"><tspan x="0" y="0">122.15</tspan></text>
      <text class="st20" transform="translate(1443.72 419.78)"><tspan x="0" y="0">122.15</tspan></text>
    </g>
    <g>
      <text class="st32" transform="translate(1031.57 363.59)"><tspan x="0" y="0">122.18</tspan></text>
      <text class="st20" transform="translate(1031.57 363.59)"><tspan x="0" y="0">122.18</tspan></text>
    </g>
    <g>
      <text class="st32" transform="translate(582.67 363.59)"><tspan x="0" y="0">122.19</tspan></text>
      <text class="st20" transform="translate(582.67 363.59)"><tspan x="0" y="0">122.19</tspan></text>
    </g>
    <circle class="st3" cx="309.8" cy="131.01" r=".75"/>
    <line class="st1" x1="299.81" y1="150.99" x2="309.8" y2="131.01"/>
    <path class="st29" d="M255.22,141h89.18v19.98h-89.18v-19.98Z"/>
    <path class="st4" d="M255.22,141h89.18v19.98h-89.18v-19.98Z"/>
    <line class="st23" x1="299.81" y1="150.99" x2="309.8" y2="131.01"/>
    <circle class="st6" cx="309.8" cy="131.01" r=".75"/>
    <g>
      <text class="st32" transform="translate(260.22 153.99)"><tspan x="0" y="0">Whanganui Tech</tspan></text>
      <text class="st20" transform="translate(260.22 153.99)"><tspan x="0" y="0">Whanganui Tech</tspan></text>
    </g>
    <circle class="st3" cx="607.94" cy="319.43" r=".75"/>
    <line class="st1" x1="597.95" y1="339.41" x2="607.94" y2="319.43"/>
    <path class="st28" d="M561.87,329.42h72.16v19.98h-72.16v-19.98Z"/>
    <path class="st4" d="M561.87,329.42h72.16v19.98h-72.16v-19.98Z"/>
    <line class="st0" x1="597.95" y1="339.41" x2="607.94" y2="319.43"/>
    <circle class="st15" cx="607.94" cy="319.43" r=".75"/>
    <g>
      <text class="st32" transform="translate(566.87 342.41)"><tspan x="0" y="0">HIVE Lounge</tspan></text>
      <text class="st20" transform="translate(566.87 342.41)"><tspan x="0" y="0">HIVE Lounge</tspan></text>
    </g>
    <circle class="st3" cx="1148.73" cy="167.33" r=".75"/>
    <line class="st1" x1="1138.74" y1="187.31" x2="1148.73" y2="167.33"/>
    <path class="st28" d="M1109.31,177.32h58.85v19.98h-58.85v-19.98Z"/>
    <path class="st4" d="M1109.31,177.32h58.85v19.98h-58.85v-19.98Z"/>
    <line class="st0" x1="1138.74" y1="187.31" x2="1148.73" y2="167.33"/>
    <circle class="st15" cx="1148.73" cy="167.33" r=".75"/>
    <g>
      <text class="st32" transform="translate(1114.31 190.31)"><tspan x="0" y="0">Hot Desks</tspan></text>
      <text class="st20" transform="translate(1114.31 190.31)"><tspan x="0" y="0">Hot Desks</tspan></text>
    </g>
    <circle class="st3" cx="1528.76" cy="170.98" r=".75"/>
    <line class="st1" x1="1518.77" y1="190.96" x2="1528.76" y2="170.98"/>
    <path class="st28" d="M1489.34,180.97h58.85v19.98h-58.85v-19.98Z"/>
    <path class="st4" d="M1489.34,180.97h58.85v19.98h-58.85v-19.98Z"/>
    <line class="st0" x1="1518.77" y1="190.96" x2="1528.76" y2="170.98"/>
    <circle class="st15" cx="1528.76" cy="170.98" r=".75"/>
    <g>
      <text class="st32" transform="translate(1494.34 193.96)"><tspan x="0" y="0">Hot Desks</tspan></text>
      <text class="st20" transform="translate(1494.34 193.96)"><tspan x="0" y="0">Hot Desks</tspan></text>
    </g>
    <circle class="st3" cx="1222.77" cy="1062.15" r=".75"/>
    <line class="st1" x1="1212.78" y1="1082.13" x2="1222.77" y2="1062.15"/>
    <path class="st29" d="M1197.23,1072.14h31.09v19.98h-31.09v-19.98Z"/>
    <path class="st4" d="M1197.23,1072.14h31.09v19.98h-31.09v-19.98Z"/>
    <line class="st23" x1="1212.78" y1="1082.13" x2="1222.77" y2="1062.15"/>
    <circle class="st6" cx="1222.77" cy="1062.15" r=".75"/>
    <g>
      <text class="st32" transform="translate(1202.23 1085.13)"><tspan x="0" y="0">Billy</tspan></text>
      <text class="st20" transform="translate(1202.23 1085.13)"><tspan x="0" y="0">Billy</tspan></text>
    </g>
    <circle class="st3" cx="380" cy="1315.96" r=".75"/>
    <line class="st1" x1="370.01" y1="1335.94" x2="380" y2="1315.96"/>
    <path class="st29" d="M347.25,1325.95h45.5v19.98h-45.5v-19.98Z"/>
    <path class="st4" d="M347.25,1325.95h45.5v19.98h-45.5v-19.98Z"/>
    <line class="st23" x1="370.01" y1="1335.94" x2="380" y2="1315.96"/>
    <circle class="st6" cx="380" cy="1315.96" r=".75"/>
    <g>
      <text class="st32" transform="translate(352.25 1338.94)"><tspan x="0" y="0">WDETT</tspan></text>
      <text class="st20" transform="translate(352.25 1338.94)"><tspan x="0" y="0">WDETT</tspan></text>
    </g>
    <circle class="st3" cx="108.97" cy="810.55" r=".75"/>
    <line class="st1" x1="98.98" y1="830.53" x2="108.97" y2="810.55"/>
    <path class="st28" d="M69.55,820.54h58.85v19.98h-58.85v-19.98Z"/>
    <path class="st4" d="M69.55,820.54h58.85v19.98h-58.85v-19.98Z"/>
    <line class="st0" x1="98.98" y1="830.53" x2="108.97" y2="810.55"/>
    <circle class="st15" cx="108.97" cy="810.55" r=".75"/>
    <g>
      <text class="st32" transform="translate(74.55 833.53)"><tspan x="0" y="0">Hot Desks</tspan></text>
      <text class="st20" transform="translate(74.55 833.53)"><tspan x="0" y="0">Hot Desks</tspan></text>
    </g>
    <circle class="st3" cx="695" cy="1062.15" r=".75"/>
    <line class="st1" x1="685.01" y1="1082.13" x2="695" y2="1062.15"/>
    <path class="st28" d="M637.55,1072.14h94.91v19.98h-94.91v-19.98Z"/>
    <path class="st4" d="M637.55,1072.14h94.91v19.98h-94.91v-19.98Z"/>
    <line class="st0" x1="685.01" y1="1082.13" x2="695" y2="1062.15"/>
    <circle class="st15" cx="695" cy="1062.15" r=".75"/>
    <g>
      <text class="st32" transform="translate(642.55 1085.13)"><tspan x="0" y="0">HIVE Mini Lounge</tspan></text>
      <text class="st20" transform="translate(642.55 1085.13)"><tspan x="0" y="0">HIVE Mini Lounge</tspan></text>
    </g>
    <circle class="st3" cx="1934.78" cy="1145.94" r=".75"/>
    <line class="st1" x1="1924.79" y1="1165.93" x2="1934.78" y2="1145.94"/>
    <path class="st28" d="M1886.4,1155.94h76.79v19.98h-76.79v-19.98Z"/>
    <path class="st4" d="M1886.4,1155.94h76.79v19.98h-76.79v-19.98Z"/>
    <line class="st0" x1="1924.79" y1="1165.93" x2="1934.78" y2="1145.94"/>
    <circle class="st15" cx="1934.78" cy="1145.94" r=".75"/>
    <g>
      <text class="st32" transform="translate(1891.39 1168.92)"><tspan x="0" y="0">Watering Hole</tspan></text>
      <text class="st20" transform="translate(1891.39 1168.92)"><tspan x="0" y="0">Watering Hole</tspan></text>
    </g>
    <circle class="st3" cx="1490.08" cy="360.59" r=".75"/>
    <line class="st1" x1="1480.09" y1="380.57" x2="1490.08" y2="360.59"/>
    <path class="st28" d="M1459,370.58h42.19v19.98h-42.19v-19.98Z"/>
    <path class="st4" d="M1459,370.58h42.19v19.98h-42.19v-19.98Z"/>
    <line class="st0" x1="1480.09" y1="380.57" x2="1490.08" y2="360.59"/>
    <circle class="st15" cx="1490.08" cy="360.59" r=".75"/>
    <g>
      <text class="st32" transform="translate(1463.99 383.57)"><tspan x="0" y="0">Zone 2</tspan></text>
      <text class="st20" transform="translate(1463.99 383.57)"><tspan x="0" y="0">Zone 2</tspan></text>
    </g>
    <g>
      <text class="st32" transform="translate(439.79 1229.53)"><tspan x="0" y="0">116.4</tspan></text>
      <text class="st20" transform="translate(439.79 1229.53)"><tspan x="0" y="0">116.4</tspan></text>
    </g>
    <g>
      <text class="st32" transform="translate(1827.73 1239.52)"><tspan x="0" y="0">116.12</tspan></text>
      <text class="st20" transform="translate(1827.73 1239.52)"><tspan x="0" y="0">116.12</tspan></text>
    </g>
    <g>
      <text class="st32" transform="translate(1630.7 1029.35)"><tspan x="0" y="0">116.17</tspan></text>
      <text class="st20" transform="translate(1630.7 1029.35)"><tspan x="0" y="0">116.17</tspan></text>
    </g>
    <g>
      <text class="st32" transform="translate(1461.66 1029.35)"><tspan x="0" y="0">116.18</tspan></text>
      <text class="st20" transform="translate(1461.66 1029.35)"><tspan x="0" y="0">116.18</tspan></text>
    </g>
    <g>
      <text class="st32" transform="translate(1271.99 1029.35)"><tspan x="0" y="0">116.19</tspan></text>
      <text class="st20" transform="translate(1271.99 1029.35)"><tspan x="0" y="0">116.19</tspan></text>
    </g>
    <circle class="st3" cx="1418.59" cy="1062.15" r=".75"/>
    <line class="st1" x1="1408.6" y1="1082.13" x2="1418.59" y2="1062.15"/>
    <path class="st29" d="M1392.78,1072.14h31.64v19.98h-31.64v-19.98Z"/>
    <path class="st4" d="M1392.78,1072.14h31.64v19.98h-31.64v-19.98Z"/>
    <line class="st23" x1="1408.6" y1="1082.13" x2="1418.59" y2="1062.15"/>
    <circle class="st6" cx="1418.59" cy="1062.15" r=".75"/>
    <g>
      <text class="st32" transform="translate(1397.78 1085.13)"><tspan x="0" y="0">Heni</tspan></text>
      <text class="st20" transform="translate(1397.78 1085.13)"><tspan x="0" y="0">Heni</tspan></text>
    </g>
    <circle class="st3" cx="1635.7" cy="1062.15" r=".75"/>
    <line class="st1" x1="1625.71" y1="1082.13" x2="1635.7" y2="1062.15"/>
    <path class="st29" d="M1603.78,1072.14h43.85v19.98h-43.85v-19.98Z"/>
    <path class="st4" d="M1603.78,1072.14h43.85v19.98h-43.85v-19.98Z"/>
    <line class="st23" x1="1625.71" y1="1082.13" x2="1635.7" y2="1062.15"/>
    <circle class="st6" cx="1635.7" cy="1062.15" r=".75"/>
    <g>
      <text class="st32" transform="translate(1608.78 1085.13)"><tspan x="0" y="0">CFO4U</tspan></text>
      <text class="st20" transform="translate(1608.78 1085.13)"><tspan x="0" y="0">CFO4U</tspan></text>
    </g>
    <g>
      <text class="st32" transform="translate(133.4 778.32)"><tspan x="0" y="0">116.1</tspan></text>
      <text class="st20" transform="translate(133.4 778.32)"><tspan x="0" y="0">116.1</tspan></text>
    </g>
    <g>
      <text class="st32" transform="translate(775.2 1085.13)"><tspan x="0" y="0">116.22</tspan></text>
      <text class="st20" transform="translate(775.2 1085.13)"><tspan x="0" y="0">116.22</tspan></text>
    </g>
    <line class="st17" x1="26.86" y1="65.57" x2="2020.15" y2="65.57"/>
    <line class="st16" x1="26.86" y1="65.57" x2="2020.15" y2="65.57"/>
    <line class="st17" x1="30.11" y1="78.56" x2="30.11" y2="62.33"/>
    <line class="st16" x1="30.11" y1="78.56" x2="30.11" y2="62.33"/>
    <line class="st17" x1="28.49" y1="63.95" x2="31.73" y2="67.2"/>
    <line class="st16" x1="28.49" y1="63.95" x2="31.73" y2="67.2"/>
    <line class="st17" x1="36.1" y1="78.56" x2="36.1" y2="62.33"/>
    <line class="st16" x1="36.1" y1="78.56" x2="36.1" y2="62.33"/>
    <line class="st17" x1="34.48" y1="63.95" x2="37.73" y2="67.2"/>
    <line class="st16" x1="34.48" y1="63.95" x2="37.73" y2="67.2"/>
    <g>
      <text class="st34" transform="translate(29.49 62.95)"><tspan x="0" y="0">12</tspan></text>
      <text class="st24" transform="translate(29.49 62.95)"><tspan x="0" y="0">12</tspan></text>
    </g>
    <line class="st17" x1="2010.91" y1="78.56" x2="2010.91" y2="62.33"/>
    <line class="st16" x1="2010.91" y1="78.56" x2="2010.91" y2="62.33"/>
    <line class="st17" x1="2009.29" y1="63.95" x2="2012.53" y2="67.2"/>
    <line class="st16" x1="2009.29" y1="63.95" x2="2012.53" y2="67.2"/>
    <g>
      <text class="st34" transform="translate(1016.28 62.95)"><tspan x="0" y="0">3953</tspan></text>
      <text class="st24" transform="translate(1016.28 62.95)"><tspan x="0" y="0">3953</tspan></text>
    </g>
    <line class="st17" x1="2016.9" y1="78.56" x2="2016.9" y2="62.33"/>
    <line class="st16" x1="2016.9" y1="78.56" x2="2016.9" y2="62.33"/>
    <line class="st17" x1="2015.28" y1="63.95" x2="2018.53" y2="67.2"/>
    <line class="st16" x1="2015.28" y1="63.95" x2="2018.53" y2="67.2"/>
    <g>
      <text class="st34" transform="translate(2010.3 62.95)"><tspan x="0" y="0">12</tspan></text>
      <text class="st24" transform="translate(2010.3 62.95)"><tspan x="0" y="0">12</tspan></text>
    </g>
    <line class="st17" x1="26.86" y1="1421.9" x2="2020.15" y2="1421.9"/>
    <line class="st16" x1="26.86" y1="1421.9" x2="2020.15" y2="1421.9"/>
    <line class="st17" x1="30.11" y1="1408.91" x2="30.11" y2="1425.14"/>
    <line class="st16" x1="30.11" y1="1408.91" x2="30.11" y2="1425.14"/>
    <line class="st17" x1="28.49" y1="1420.27" x2="31.73" y2="1423.52"/>
    <line class="st16" x1="28.49" y1="1420.27" x2="31.73" y2="1423.52"/>
    <line class="st17" x1="36.1" y1="1408.91" x2="36.1" y2="1425.14"/>
    <line class="st16" x1="36.1" y1="1408.91" x2="36.1" y2="1425.14"/>
    <line class="st17" x1="34.48" y1="1420.27" x2="37.73" y2="1423.52"/>
    <line class="st16" x1="34.48" y1="1420.27" x2="37.73" y2="1423.52"/>
    <g>
      <text class="st34" transform="translate(29.49 1419.28)"><tspan x="0" y="0">12</tspan></text>
      <text class="st24" transform="translate(29.49 1419.28)"><tspan x="0" y="0">12</tspan></text>
    </g>
    <line class="st17" x1="2010.91" y1="1408.91" x2="2010.91" y2="1425.14"/>
    <line class="st16" x1="2010.91" y1="1408.91" x2="2010.91" y2="1425.14"/>
    <line class="st17" x1="2009.29" y1="1420.27" x2="2012.53" y2="1423.52"/>
    <line class="st16" x1="2009.29" y1="1420.27" x2="2012.53" y2="1423.52"/>
    <g>
      <text class="st34" transform="translate(1016.28 1419.28)"><tspan x="0" y="0">3953</tspan></text>
      <text class="st24" transform="translate(1016.28 1419.28)"><tspan x="0" y="0">3953</tspan></text>
    </g>
    <line class="st17" x1="2016.9" y1="1408.91" x2="2016.9" y2="1425.14"/>
    <line class="st16" x1="2016.9" y1="1408.91" x2="2016.9" y2="1425.14"/>
    <line class="st17" x1="2015.28" y1="1420.27" x2="2018.53" y2="1423.52"/>
    <line class="st16" x1="2015.28" y1="1420.27" x2="2018.53" y2="1423.52"/>
    <g>
      <text class="st34" transform="translate(2010.3 1419.28)"><tspan x="0" y="0">12</tspan></text>
      <text class="st24" transform="translate(2010.3 1419.28)"><tspan x="0" y="0">12</tspan></text>
    </g>
    <line class="st17" x1="11.28" y1="81.16" x2="11.28" y2="1406.31"/>
    <line class="st16" x1="11.28" y1="81.16" x2="11.28" y2="1406.31"/>
    <line class="st17" x1="24.26" y1="84.41" x2="8.03" y2="84.41"/>
    <line class="st16" x1="24.26" y1="84.41" x2="8.03" y2="84.41"/>
    <line class="st17" x1="12.9" y1="82.78" x2="9.65" y2="86.03"/>
    <line class="st16" x1="12.9" y1="82.78" x2="9.65" y2="86.03"/>
    <line class="st17" x1="24.26" y1="90.4" x2="8.03" y2="90.4"/>
    <line class="st16" x1="24.26" y1="90.4" x2="8.03" y2="90.4"/>
    <line class="st17" x1="12.9" y1="88.78" x2="9.65" y2="92.02"/>
    <line class="st16" x1="12.9" y1="88.78" x2="9.65" y2="92.02"/>
    <g>
      <text class="st34" transform="translate(8.65 91.02) rotate(-90)"><tspan x="0" y="0">12</tspan></text>
      <text class="st24" transform="translate(8.65 91.02) rotate(-90)"><tspan x="0" y="0">12</tspan></text>
    </g>
    <line class="st17" x1="24.26" y1="1397.07" x2="8.03" y2="1397.07"/>
    <line class="st16" x1="24.26" y1="1397.07" x2="8.03" y2="1397.07"/>
    <line class="st17" x1="12.9" y1="1395.45" x2="9.65" y2="1398.69"/>
    <line class="st16" x1="12.9" y1="1395.45" x2="9.65" y2="1398.69"/>
    <g>
      <text class="st34" transform="translate(8.65 750.96) rotate(-90)"><tspan x="0" y="0">2616</tspan></text>
      <text class="st24" transform="translate(8.65 750.96) rotate(-90)"><tspan x="0" y="0">2616</tspan></text>
    </g>
    <line class="st17" x1="24.26" y1="1403.07" x2="8.03" y2="1403.07"/>
    <line class="st16" x1="24.26" y1="1403.07" x2="8.03" y2="1403.07"/>
    <line class="st17" x1="12.9" y1="1401.44" x2="9.65" y2="1404.69"/>
    <line class="st16" x1="12.9" y1="1401.44" x2="9.65" y2="1404.69"/>
    <g>
      <text class="st34" transform="translate(8.65 1403.68) rotate(-90)"><tspan x="0" y="0">12</tspan></text>
      <text class="st24" transform="translate(8.65 1403.68) rotate(-90)"><tspan x="0" y="0">12</tspan></text>
    </g>
    <line class="st17" x1="2035.74" y1="81.16" x2="2035.74" y2="1406.31"/>
    <line class="st16" x1="2035.74" y1="81.16" x2="2035.74" y2="1406.31"/>
    <line class="st17" x1="2022.75" y1="84.41" x2="2038.98" y2="84.41"/>
    <line class="st16" x1="2022.75" y1="84.41" x2="2038.98" y2="84.41"/>
    <line class="st17" x1="2037.36" y1="82.78" x2="2034.11" y2="86.03"/>
    <line class="st16" x1="2037.36" y1="82.78" x2="2034.11" y2="86.03"/>
    <line class="st17" x1="2022.75" y1="90.4" x2="2038.98" y2="90.4"/>
    <line class="st16" x1="2022.75" y1="90.4" x2="2038.98" y2="90.4"/>
    <line class="st17" x1="2037.36" y1="88.78" x2="2034.11" y2="92.02"/>
    <line class="st16" x1="2037.36" y1="88.78" x2="2034.11" y2="92.02"/>
    <g>
      <text class="st34" transform="translate(2033.12 91.02) rotate(-90)"><tspan x="0" y="0">12</tspan></text>
      <text class="st24" transform="translate(2033.12 91.02) rotate(-90)"><tspan x="0" y="0">12</tspan></text>
    </g>
    <line class="st17" x1="2022.75" y1="1397.07" x2="2038.98" y2="1397.07"/>
    <line class="st16" x1="2022.75" y1="1397.07" x2="2038.98" y2="1397.07"/>
    <line class="st17" x1="2037.36" y1="1395.45" x2="2034.11" y2="1398.69"/>
    <line class="st16" x1="2037.36" y1="1395.45" x2="2034.11" y2="1398.69"/>
    <g>
      <text class="st34" transform="translate(2033.12 750.96) rotate(-90)"><tspan x="0" y="0">2616</tspan></text>
      <text class="st24" transform="translate(2033.12 750.96) rotate(-90)"><tspan x="0" y="0">2616</tspan></text>
    </g>
    <line class="st17" x1="2022.75" y1="1403.07" x2="2038.98" y2="1403.07"/>
    <line class="st16" x1="2022.75" y1="1403.07" x2="2038.98" y2="1403.07"/>
    <line class="st17" x1="2037.36" y1="1401.44" x2="2034.11" y2="1404.69"/>
    <line class="st16" x1="2037.36" y1="1401.44" x2="2034.11" y2="1404.69"/>
    <g>
      <text class="st34" transform="translate(2033.12 1403.68) rotate(-90)"><tspan x="0" y="0">12</tspan></text>
      <text class="st24" transform="translate(2033.12 1403.68) rotate(-90)"><tspan x="0" y="0">12</tspan></text>
    </g>
  </g>
  <text class="st31" transform="translate(2429.96 1135.65)"><tspan x="0" y="0">column work_units.active</tspan></text>
</svg>